<?xml version="1.0" standalone="no"?>
<!DOCTYPE svg PUBLIC "-//W3C//DTD SVG 20010904//EN"
 "http://www.w3.org/TR/2001/REC-SVG-20010904/DTD/svg10.dtd">
<svg version="1.0" xmlns="http://www.w3.org/2000/svg"
 width="2048.000000pt" height="2048.000000pt" viewBox="0 0 2048.000000 2048.000000"
 preserveAspectRatio="xMidYMid meet">

<g transform="translate(0.000000,2048.000000) scale(0.100000,-0.100000)"
fill="#000000" stroke="none">
<path d="M0 14454 l0 -6026 488 5 489 5 26 26 c28 27 73 34 107 16 24 -13 43
-70 34 -104 -15 -61 -101 -77 -148 -27 l-27 28 -485 2 -484 2 0 -4190 0 -4191
5430 0 c4337 0 5430 3 5430 13 0 8 4 7 10 -3 16 -24 11 -6 -7 31 -21 42 -24
59 -11 59 7 0 6 5 -1 14 -10 11 -8 15 6 19 14 4 14 5 2 6 -14 1 -16 42 -22
365 -3 201 -4 479 -1 618 6 313 12 385 33 381 6 -2 10 0 10 5 -1 4 0 16 1 27
6 40 17 -134 19 -300 1 -93 5 -196 10 -228 8 -63 8 -180 -2 -407 -4 -80 -9
-247 -12 -372 l-6 -228 4796 0 4795 0 0 5802 0 5801 -207 -7 c-220 -7 -492 -8
-503 -1 -4 2 -175 5 -381 6 -206 1 -385 5 -399 9 -20 6 -14 9 28 11 73 3 76 3
82 9 21 23 80 27 344 29 160 1 293 4 296 6 12 7 353 7 547 -1 l193 -7 0 4412
0 4411 -10240 0 -10240 0 0 -6026z m10855 4991 c8 -48 22 -794 19 -1060 -1
-104 -3 -290 -4 -413 -1 -122 -6 -225 -11 -228 -5 -3 -10 14 -10 38 l-2 43 -7
-35 c-6 -29 -8 -31 -9 -10 -2 14 -4 34 -6 44 -7 35 -17 347 -18 531 -1 303 15
1130 22 1133 4 1 6 19 4 40 l-2 37 8 -40 c5 -22 12 -58 16 -80z m1713 -937 l5
-943 -507 -505 c-278 -278 -512 -504 -520 -504 -7 1 -13 -5 -12 -14 0 -8 -6
-17 -14 -19 -13 -4 -13 -3 0 6 8 6 10 11 4 11 -16 0 -35 -25 -26 -34 4 -4 0
-6 -8 -4 -8 2 -14 -3 -12 -10 1 -8 -2 -11 -9 -6 -6 3 -15 0 -20 -7 -7 -10 -9
-5 -7 16 2 21 8 30 20 29 10 -1 14 4 11 11 -2 8 215 234 516 536 l520 522 4
831 c4 815 7 929 28 969 8 14 8 18 0 13 -6 -4 -11 0 -11 9 0 9 5 13 10 10 7
-4 8 3 4 22 -5 22 -4 26 6 16 10 -10 14 -206 18 -955z m-3538 842 c0 -11 -2
-20 -4 -20 -2 0 -6 9 -9 20 -3 11 -1 20 4 20 5 0 9 -9 9 -20z m0 -52 c0 -17 3
-19 9 -9 12 19 18 -33 20 -179 2 -151 11 -270 21 -270 4 0 11 -8 15 -17 11
-27 15 -202 4 -209 -5 -3 -9 -19 -9 -35 0 -17 -4 -28 -9 -25 -10 7 -21 -125
-21 -261 0 -83 -3 -104 -16 -111 -9 -5 -15 -12 -15 -15 3 -22 0 -37 -7 -37 -5
0 -10 24 -11 53 -2 28 -4 66 -6 82 -2 17 -3 72 -4 123 -1 78 -4 95 -21 112
-11 11 -20 23 -20 28 0 4 -7 21 -16 37 -20 39 -22 244 -2 260 7 6 14 15 15 20
0 6 3 21 5 35 1 14 9 30 17 36 14 11 28 183 30 352 1 28 6 52 11 52 6 0 10
-10 10 -22z m-283 -560 c-3 -8 -6 -5 -6 6 -1 11 2 17 5 13 3 -3 4 -12 1 -19z
m5034 -61 c-6 -8 -8 -17 -4 -21 4 -4 0 -4 -10 0 -16 6 -22 -4 -18 -28 0 -5 -6
-8 -14 -8 -22 0 -19 11 13 42 28 28 53 39 33 15z m-5044 -19 c-3 -8 -6 -5 -6
6 -1 11 2 17 5 13 3 -3 4 -12 1 -19z m17 -117 c-2 -73 0 -141 6 -156 7 -17 7
-24 0 -20 -6 3 -10 1 -10 -4 0 -6 4 -11 10 -11 5 0 6 -7 3 -17 -5 -12 -3 -14
7 -8 9 5 11 4 6 -4 -4 -6 -12 -9 -17 -6 -5 4 -9 -10 -9 -30 0 -25 4 -34 12
-29 7 5 8 3 3 -7 -12 -18 -15 -59 -5 -59 4 0 11 -7 14 -16 4 -11 2 -15 -7 -11
-8 3 -14 -1 -14 -8 0 -7 6 -11 14 -8 9 4 11 0 7 -11 -3 -9 -10 -13 -15 -10 -5
3 -10 -32 -11 -78 -3 -194 -3 -246 3 -236 3 5 8 10 11 11 9 4 80 -62 268 -248
424 -420 466 -465 450 -476 -12 -8 -10 -9 8 -4 20 6 32 -8 15 -18 -5 -2 -3 -2
4 -1 6 2 16 -3 22 -10 8 -9 4 -12 -16 -11 -15 0 -28 5 -30 12 -3 7 -10 10 -16
7 -11 -4 -466 445 -675 666 l-71 75 0 283 c0 167 4 282 10 282 5 0 9 5 9 11 0
5 -4 7 -10 4 -5 -3 -10 -1 -10 4 0 6 5 11 10 11 6 0 10 5 10 11 0 5 -6 7 -12
3 -8 -5 -8 -1 1 10 13 15 13 19 0 27 -8 5 -9 9 -3 9 6 0 12 11 12 25 0 13 -4
23 -8 20 -3 -2 -7 2 -7 10 0 8 5 15 10 15 6 0 7 21 4 53 -4 34 -3 45 3 32 7
-17 9 -15 9 13 1 17 3 32 5 32 2 0 2 -58 0 -129z m4956 99 c0 -5 -5 -10 -11
-10 -5 0 -7 5 -4 10 3 6 8 10 11 10 2 0 4 -4 4 -10z m19 -29 c9 -1 7 -8 -9
-21 -12 -11 -26 -17 -31 -14 -5 3 -6 -3 -2 -12 5 -14 3 -16 -11 -11 -10 4 -15
3 -11 -3 3 -5 -36 -53 -87 -106 -107 -111 -117 -125 -118 -178 0 -30 3 -37 15
-32 11 4 15 -1 15 -18 0 -12 3 -26 7 -30 4 -4 9 -19 11 -34 2 -15 6 -28 10
-30 4 -1 7 -26 7 -55 0 -28 3 -74 6 -102 4 -30 1 -80 -8 -125 -8 -41 -16 -82
-17 -90 -4 -25 -24 -68 -34 -71 -5 -2 -12 -83 -16 -179 l-7 -175 -86 -87 c-48
-48 -89 -85 -92 -82 -3 3 1 9 9 14 8 6 10 10 4 10 -17 0 -33 -21 -27 -36 4
-10 0 -12 -13 -7 -12 4 -15 3 -9 -6 6 -10 3 -11 -14 -2 -11 7 -21 17 -20 24 0
9 2 9 6 0 3 -10 7 -10 18 0 7 7 11 15 8 20 -2 4 3 7 12 7 9 0 13 5 10 10 -4 6
-1 9 7 8 7 -2 12 5 12 14 -1 11 4 14 14 11 9 -4 13 -2 9 4 -9 14 21 45 34 37
5 -3 8 0 7 8 -2 7 3 12 10 10 8 -1 11 2 8 7 -4 5 6 22 20 36 l27 27 -6 136
c-4 76 -7 162 -7 192 0 34 -4 50 -9 42 -13 -21 -35 42 -44 123 -2 22 -7 47
-10 55 -7 19 -4 110 4 110 3 0 6 23 8 52 1 28 9 64 17 81 9 16 11 26 5 23 -7
-4 -8 -1 -5 8 3 9 12 16 20 16 11 0 14 17 14 74 0 64 3 78 23 99 46 50 260
251 252 238 -5 -9 -3 -12 6 -9 8 3 13 10 12 16 -1 5 5 9 15 7 9 -2 23 -4 31
-4z m3459 -43 c-2 -35 -7 -43 -23 -43 -26 0 -44 47 -25 69 7 9 21 16 32 16 16
0 19 -6 16 -42z m-498 -52 c0 -3 -4 -8 -10 -11 -5 -3 -10 -1 -10 4 0 6 5 11
10 11 6 0 10 -2 10 -4z m-7917 -21 c4 -8 3 -16 -1 -19 -4 -3 -9 4 -9 15 -2 23
3 25 10 4z m8412 -45 c-3 -5 -10 -10 -16 -10 -5 0 -9 5 -9 10 0 6 7 10 16 10
8 0 12 -4 9 -10z m-532 -35 c-7 -21 -13 -19 -13 6 0 11 4 18 10 14 5 -3 7 -12
3 -20z m537 -44 c0 -33 -11 -44 -34 -35 -10 4 -16 18 -16 35 0 24 4 29 25 29
21 0 25 -5 25 -29z m0 -71 c0 -5 -7 -10 -16 -10 -8 0 -12 5 -9 10 3 6 10 10
16 10 5 0 9 -4 9 -10z m2955 -10 c-4 -6 -11 -8 -16 -5 -5 4 -9 2 -9 -3 0 -5
-13 -9 -29 -8 -41 1 -22 20 24 24 23 1 34 -2 30 -8z m-11365 -60 c0 -5 -2 -10
-4 -10 -3 0 -8 5 -11 10 -3 6 -1 10 4 10 6 0 11 -4 11 -10z m7858 -78 c2 -40
-2 -80 -7 -90 -8 -12 -10 5 -11 66 0 71 -2 82 -17 82 -15 0 -16 2 -3 10 27 18
35 4 38 -68z m3302 48 c0 -5 -8 -10 -17 -10 -15 0 -16 2 -3 10 19 12 20 12 20
0z m226 -130 c1 -63 -1 -103 -3 -87 -4 24 -8 27 -47 27 -35 0 -42 -3 -43 -20
-1 -14 4 -20 18 -20 10 0 19 -7 19 -15 0 -8 7 -16 15 -16 8 -1 21 -2 28 -3 8
-1 13 -26 15 -82 4 -102 -9 -120 -88 -125 -43 -3 -55 -1 -56 11 -1 8 -2 17 -3
20 -1 3 -4 42 -6 88 -2 46 -9 90 -16 98 -9 11 -8 18 4 32 15 17 15 19 -3 35
-11 9 -36 17 -55 17 -34 0 -35 1 -35 42 0 41 9 48 14 11 2 -10 12 -18 22 -19
10 -1 27 -5 37 -9 9 -4 23 -2 31 4 7 6 16 8 19 4 4 -3 7 21 7 54 0 33 3 63 7
67 4 4 32 6 63 4 l55 -3 1 -115z m-205 85 c13 4 19 2 19 -8 0 -9 -13 -16 -35
-19 -27 -3 -34 -1 -30 10 3 7 5 21 5 30 1 15 2 15 11 -1 7 -12 17 -16 30 -12z
m-3281 -85 c0 -11 -2 -20 -4 -20 -2 0 -6 9 -9 20 -3 11 -1 20 4 20 5 0 9 -9 9
-20z m-40 -36 c0 -2 -15 -4 -32 -4 -23 0 -29 3 -19 9 12 8 51 4 51 -5z m40 0
c0 -2 -7 -4 -15 -4 -8 0 -15 4 -15 10 0 5 7 7 15 4 8 -4 15 -8 15 -10z m2410
-44 c0 -11 -4 -20 -9 -20 -5 0 -7 9 -4 20 3 11 7 20 9 20 2 0 4 -9 4 -20z
m901 -57 c1 -24 -3 -132 -5 -162 -2 -14 -8 -27 -14 -29 -7 -2 -10 3 -6 12 5
12 -1 16 -24 16 -58 0 -62 6 -62 86 l0 73 38 6 c20 4 42 8 47 10 20 7 25 5 26
-12z m-3404 -45 c-3 -8 -6 -5 -6 6 -1 11 2 17 5 13 3 -3 4 -12 1 -19z m3381
-280 c-2 -5 -7 -9 -11 -9 -4 1 -16 1 -28 1 -11 0 -18 3 -16 8 7 11 58 11 55 0z
m188 -11 c5 -5 7 -69 5 -146 -2 -81 -13 -54 -14 36 l-2 78 -42 1 -43 2 -1 -42
c-1 -22 -1 -58 0 -78 0 -20 -3 -40 -9 -43 -12 -7 -14 187 -2 199 7 8 100 1
108 -7z m-186 -47 c0 -6 -11 -9 -25 -7 -37 5 -42 17 -7 17 18 0 32 -5 32 -10z
m-55 -40 c3 -5 1 -10 -4 -10 -6 0 -11 5 -11 10 0 6 2 10 4 10 3 0 8 -4 11 -10z
m55 -45 l0 -46 -35 3 c-19 1 -35 6 -35 10 0 4 14 5 30 2 29 -6 30 -6 30 35 0
22 2 41 5 41 3 0 5 -20 5 -45z m-1967 8 c-7 -2 -21 -2 -30 0 -10 3 -4 5 12 5
17 0 24 -2 18 -5z m2123 -75 c3 -4 -11 -8 -30 -8 -20 0 -36 4 -36 9 0 12 59
11 66 -1z m-1094 -113 c3 -14 2 -25 -2 -25 -4 0 -10 13 -12 29 -5 36 8 32 14
-4z m201 18 c-7 -2 -19 -2 -25 0 -7 3 -2 5 12 5 14 0 19 -2 13 -5z m747 -19
c0 -10 -9 -14 -28 -12 -16 1 -29 7 -29 14 0 6 13 11 29 12 18 0 28 -4 28 -14z
m-9 -98 c-9 -11 -9 -15 1 -19 7 -3 3 -6 -9 -6 -16 -1 -20 3 -16 19 3 11 12 20
20 20 12 0 13 -3 4 -14z m-51 -16 c0 -5 -5 -10 -11 -10 -5 0 -7 5 -4 10 3 6 8
10 11 10 2 0 4 -4 4 -10z m-6737 -75 c-3 -9 -8 -14 -10 -11 -3 3 -2 9 2 15 9
16 15 13 8 -4z m-3642 -64 c14 -2 17 -30 5 -34 -8 -3 -13 1 -12 11 1 11 -5 16
-16 14 -9 -1 -19 1 -22 6 -5 8 16 9 45 3z m10439 -1 c0 -5 -2 -10 -4 -10 -3 0
-8 5 -11 10 -3 6 -1 10 4 10 6 0 11 -4 11 -10z m-4412 -28 c30 -20 52 -63 52
-104 0 -37 -32 -78 -80 -103 -17 -9 -30 -21 -30 -27 0 -6 -8 -4 -18 5 -23 21
-41 21 -62 2 -22 -20 -56 -9 -39 11 10 12 9 13 -5 8 -9 -3 -16 -11 -16 -17 0
-6 -3 -8 -6 -4 -3 3 6 21 20 39 17 23 23 41 19 56 -13 51 20 121 70 149 23 12
63 5 95 -15z m4354 -39 c-3 -16 -7 -22 -10 -15 -4 13 4 42 11 42 2 0 2 -12 -1
-27z m-755 -50 c-3 -10 -5 -2 -5 17 0 19 2 27 5 18 2 -10 2 -26 0 -35z m796
-30 c-7 -2 -19 -2 -25 0 -7 3 -2 5 12 5 14 0 19 -2 13 -5z m-4419 -147 c-3 -9
-10 -16 -15 -16 -6 0 -5 9 1 21 13 24 24 20 14 -5z m-39 4 c3 -5 -1 -10 -9
-10 -9 0 -16 5 -16 10 0 6 4 10 9 10 6 0 13 -4 16 -10z m4405 -26 c0 -8 -4
-12 -10 -9 -5 3 -10 10 -10 16 0 5 5 9 10 9 6 0 10 -7 10 -16z m-4420 -34 c0
-5 -2 -10 -4 -10 -3 0 -8 5 -11 10 -3 6 -1 10 4 10 6 0 11 -4 11 -10z m-10870
-815 l0 -55 -60 0 -60 0 0 55 0 55 60 0 60 0 0 -55z m887 42 c6 -4 14 -1 16 5
3 7 6 -13 6 -45 l1 -58 -50 3 c-28 2 -52 8 -55 16 -2 6 0 12 5 12 6 0 6 9 1
23 -5 12 -10 26 -12 32 -2 5 10 12 26 16 36 6 46 6 62 -4z m-707 -222 l0 -56
-55 2 -55 2 0 52 0 52 55 2 55 2 0 -56z m365 -2 l1 -53 -58 0 -58 0 0 55 0 56
57 -3 57 -3 1 -52z m9615 -10 c0 -41 -3 -54 -10 -43 -6 10 -10 11 -10 3 0 -9
-16 -13 -45 -13 l-45 0 0 55 0 55 55 0 55 0 0 -57z m370 0 c0 -32 -4 -53 -11
-53 -7 0 -9 10 -5 25 6 25 -8 36 -17 13 -3 -7 -4 -3 -4 8 1 14 6 20 14 17 7
-3 13 2 13 10 0 31 -41 29 -53 -3 -4 -11 -6 -9 -6 6 -1 27 3 30 39 30 30 0 30
0 30 -53z m-60 -43 c0 -5 -4 -10 -10 -10 -5 0 -10 5 -10 10 0 6 5 10 10 10 6
0 10 -4 10 -10z m30 0 c0 -5 -4 -10 -10 -10 -5 0 -10 5 -10 10 0 6 5 10 10 10
6 0 10 -4 10 -10z m-9660 -90 c-8 -5 -19 -10 -25 -10 -5 0 -3 5 5 10 8 5 20
10 25 10 6 0 3 -5 -5 -10z m50 0 c0 -5 -8 -10 -17 -10 -15 0 -16 2 -3 10 19
12 20 12 20 0z m9090 -43 l0 -54 -55 -2 c-60 -2 -57 -7 -57 79 0 11 0 22 1 25
1 3 26 5 56 5 l55 0 0 -53z m-193 -29 c-3 -8 -6 -5 -6 6 -1 11 2 17 5 13 3 -3
4 -12 1 -19z m5709 -1 c3 -3 -6 -4 -20 -3 -14 2 -26 -1 -26 -6 0 -5 -5 -6 -10
-3 -17 11 -1 24 25 21 14 -2 28 -5 31 -9z m-5696 -147 c0 -64 -6 -70 -66 -70
l-54 0 0 54 0 55 38 3 c71 6 82 0 82 -42z m104 31 c3 -5 -1 -11 -9 -14 -9 -4
-12 -1 -8 9 6 16 10 17 17 5z m633 -68 c-2 -16 -4 -3 -4 27 0 30 2 43 4 28 2
-16 2 -40 0 -55z m3816 -85 c12 -14 15 -24 8 -26 -6 -2 -11 -8 -11 -13 0 -4 7
-6 16 -2 13 5 15 2 9 -18 -27 -92 -105 -108 -160 -32 -16 23 -36 42 -42 42 -7
1 -13 6 -13 12 0 6 7 9 15 5 9 -3 27 8 48 30 29 33 36 35 72 31 25 -4 47 -14
58 -29z m-219 -49 c-16 -6 -15 -8 8 -8 15 -1 29 -5 32 -9 6 -11 -170 -9 -180
1 -4 4 22 8 57 9 47 1 54 3 29 7 l-35 5 45 6 c50 6 74 1 44 -11z m-107 5 c-3
-3 -12 -4 -19 -1 -8 3 -5 6 6 6 11 1 17 -2 13 -5z m-254 -11 c-7 -2 -19 -2
-25 0 -7 3 -2 5 12 5 14 0 19 -2 13 -5z m104 1 c-3 -3 -12 -4 -19 -1 -8 3 -5
6 6 6 11 1 17 -2 13 -5z m-80 -20 c-3 -3 -12 -4 -19 -1 -8 3 -5 6 6 6 11 1 17
-2 13 -5z m66 -1 c-7 -2 -19 -2 -25 0 -7 3 -2 5 12 5 14 0 19 -2 13 -5z m54 1
c-3 -3 -12 -4 -19 -1 -8 3 -5 6 6 6 11 1 17 -2 13 -5z m-13461 -145 c21 -19
35 -20 331 -19 170 0 320 2 332 5 13 2 138 5 279 6 226 1 271 -1 377 -21 213
-39 364 -97 548 -211 67 -42 110 -73 216 -157 14 -11 14 -14 1 -23 -12 -8 -10
-9 7 -4 16 4 26 -1 42 -24 21 -29 21 -30 3 -40 -14 -8 -26 -5 -50 12 -18 12
-30 28 -27 35 3 7 0 10 -6 7 -5 -4 -33 13 -62 37 -138 118 -369 230 -558 272
-154 34 -384 45 -932 46 l-488 1 -25 -31 c-49 -57 -139 -33 -150 41 -5 28 -1
41 20 66 40 47 93 48 142 2z m5279 1 l31 -30 549 -3 550 -2 -2 -360 c0 -198
-3 -430 -5 -515 -2 -85 -1 -192 2 -238 3 -47 1 -87 -4 -93 -6 -6 -5 -9 3 -9
11 0 11 -3 1 -15 -8 -9 -8 -15 -2 -15 6 0 10 -9 9 -20 -1 -11 -5 -20 -9 -20
-4 0 -8 -17 -8 -37 -1 -26 -3 -33 -9 -23 -5 8 -11 302 -14 652 -3 351 -8 642
-12 647 -3 7 -196 9 -528 8 l-522 -2 -32 -32 c-20 -21 -41 -33 -58 -33 -15 0
-24 4 -20 10 3 5 0 7 -8 4 -8 -3 -22 2 -31 11 -15 15 -18 23 -15 41 0 4 -5 11
-13 15 -11 7 -11 9 0 9 8 0 11 7 8 18 -10 29 29 62 71 62 28 0 45 -8 68 -30z
m-7370 -38 c-35 -7 -287 -113 -369 -154 -132 -66 -241 -142 -230 -160 4 -7 2
-8 -5 -4 -12 8 -71 -45 -71 -64 0 -5 -3 -9 -7 -9 -22 4 -33 -3 -33 -18 0 -9
-3 -14 -6 -10 -6 6 -33 -16 -37 -30 -1 -4 -22 -24 -47 -44 -100 -79 -210 -230
-307 -422 -33 -64 -63 -114 -68 -109 -5 4 -5 2 -2 -4 3 -5 -5 -39 -19 -75 -14
-35 -23 -54 -20 -41 2 12 0 22 -5 22 -5 0 -9 -6 -10 -12 0 -7 -2 -21 -4 -31
-2 -9 1 -15 6 -11 5 3 9 0 9 -5 0 -6 -7 -11 -15 -11 -8 0 -15 -7 -15 -16 0 -9
5 -12 12 -8 7 4 8 3 4 -5 -4 -6 -12 -8 -18 -5 -7 5 -9 0 -6 -14 4 -14 2 -20
-4 -15 -8 4 -9 -5 -5 -28 6 -33 6 -33 -7 -10 -18 32 -27 6 -10 -28 8 -14 10
-28 6 -31 -5 -3 -9 -23 -11 -45 -1 -21 -7 -45 -12 -52 -6 -6 -7 -18 -3 -24 4
-8 3 -9 -4 -5 -7 4 -12 2 -12 -5 0 -7 -2 -10 -5 -7 -9 9 6 58 16 52 5 -3 9 5
9 18 0 17 -2 20 -9 9 -6 -9 -8 3 -7 35 4 69 16 124 28 121 6 -1 13 4 16 12 3
9 0 11 -8 6 -10 -6 -12 -4 -7 9 4 10 10 28 13 41 3 13 13 26 21 29 11 4 13 14
8 36 -4 16 -3 30 2 30 5 0 10 10 10 22 1 13 7 24 12 26 5 2 7 10 4 19 -4 10
-2 14 4 10 6 -4 11 3 11 16 0 37 105 248 180 361 74 110 145 199 219 270 23
22 39 44 36 50 -3 5 -1 6 5 2 6 -3 16 0 24 7 14 14 112 87 164 123 141 97 415
193 544 191 30 0 46 -2 35 -5z m540 -175 c55 -3 136 -12 180 -21 118 -25 277
-75 270 -86 -3 -6 0 -7 8 -4 28 10 253 -118 241 -138 -3 -5 -22 1 -42 13 l-37
22 29 -27 c16 -14 32 -26 36 -26 3 0 16 -9 28 -21 12 -11 27 -17 33 -13 7 4
-2 13 -20 22 -21 10 -29 18 -22 25 6 6 21 0 43 -18 34 -29 38 -42 11 -37 -9 2
4 -16 28 -40 30 -30 47 -40 55 -34 12 11 -5 36 -25 36 -6 0 -11 5 -11 10 0 6
-8 10 -17 10 -13 0 -14 3 -6 11 8 8 22 1 54 -27 66 -61 79 -76 72 -88 -3 -6
-2 -8 2 -3 5 4 19 -3 32 -15 27 -25 31 -47 6 -27 -16 13 -17 12 -5 -3 8 -9 19
-15 26 -12 6 2 35 -32 66 -78 l55 -83 5 304 5 304 754 5 c541 3 787 1 870 -8
246 -25 475 -107 651 -232 77 -54 212 -189 206 -205 -3 -7 0 -12 6 -10 7 1 27
-20 45 -47 26 -37 31 -51 21 -57 -10 -6 -9 -12 6 -26 18 -17 18 -17 13 0 -10
28 1 20 19 -14 10 -21 11 -29 3 -23 -8 5 -11 3 -7 -7 4 -10 -1 -15 -12 -16
-10 -1 -21 5 -24 13 -3 8 -1 14 5 14 6 0 6 7 -1 20 -6 11 -15 18 -19 15 -5 -2
-14 2 -21 10 -9 11 -9 15 -1 15 7 0 9 5 6 10 -3 6 -1 10 5 10 7 0 9 -9 6 -22
l-6 -23 12 23 c15 29 -2 51 -23 29 -11 -12 -20 -6 -57 40 -24 29 -40 57 -37
63 4 6 -1 7 -11 3 -13 -5 -16 -3 -11 10 4 10 2 16 -6 14 -7 -1 -11 4 -10 10 2
7 -1 12 -6 10 -12 -3 -92 63 -87 72 3 4 0 8 -7 8 -7 0 -37 17 -67 38 -104 71
-276 141 -417 169 -167 33 -277 38 -1010 43 l-743 6 -1 -39 c0 -22 -2 -174 -3
-339 -2 -165 -4 -305 -5 -311 -2 -18 -32 -12 -45 10 -58 97 -95 170 -89 179 3
6 1 7 -5 3 -6 -4 -28 16 -50 46 -22 29 -68 81 -104 116 -289 284 -680 410
-1149 370 -480 -40 -868 -295 -1104 -723 -30 -55 -55 -94 -55 -87 0 7 7 26 15
42 15 29 11 60 -7 60 -5 0 -6 5 -3 10 4 6 11 7 17 4 7 -4 8 -2 4 5 -10 15 17
60 109 186 138 188 339 353 532 436 150 64 376 114 538 118 44 1 80 3 82 4 1
1 19 1 40 0 21 -1 83 -4 138 -6z m11408 2 c52 -27 156 -102 152 -109 -7 -11
22 -33 34 -25 7 3 8 0 5 -10 -5 -12 -10 -13 -20 -4 -7 6 -19 9 -26 6 -7 -2
-26 5 -43 18 -16 12 -63 41 -103 65 -72 42 -73 44 -50 56 29 16 25 16 51 3z
m2529 -10 c362 -47 674 -231 859 -505 163 -242 257 -580 234 -844 -4 -47 -7
-92 -7 -101 0 -9 -5 -16 -11 -16 -8 0 -13 35 -15 111 -7 271 -87 574 -200 756
-149 239 -358 402 -635 495 -137 46 -268 66 -435 66 -377 0 -660 -107 -911
-346 -40 -38 -76 -70 -80 -70 -3 0 -5 -4 -3 -9 1 -4 -15 -31 -36 -60 -51 -67
-113 -182 -153 -281 -17 -44 -38 -84 -45 -88 -8 -4 -14 -13 -14 -20 0 -7 4 -6
10 3 14 21 13 -5 0 -31 -15 -26 -37 -24 -44 5 -7 27 41 169 54 161 4 -3 7 1 7
8 -2 21 35 97 44 91 5 -3 6 1 3 9 -10 27 138 253 157 241 5 -3 8 0 7 8 -2 7 3
12 10 10 8 -1 11 1 8 6 -8 13 63 84 76 76 6 -4 8 -3 5 4 -12 19 153 140 268
197 251 123 536 165 847 124z m-8842 1 c-9 -6 -10 -10 -3 -10 6 0 15 5 18 10
8 13 255 12 255 -1 0 -4 7 -6 15 -3 44 17 321 -59 450 -123 90 -45 187 -105
180 -111 -2 -3 -11 1 -19 7 -10 8 -21 9 -32 3 -15 -8 -15 -9 0 -15 10 -4 15
-3 11 3 -10 16 8 11 35 -10 14 -11 30 -20 35 -20 6 0 3 5 -5 10 -8 5 -10 10
-4 10 16 0 35 -25 27 -34 -4 -4 0 -4 8 -1 9 3 22 -2 30 -11 9 -12 10 -15 2
-10 -21 12 -15 1 13 -25 l27 -24 -13 25 c-11 22 -9 21 20 -7 17 -18 29 -37 26
-42 -4 -5 -2 -12 4 -16 5 -3 10 -1 10 6 0 16 36 -16 38 -34 2 -24 8 -42 20
-62 11 -18 12 -17 6 10 -4 17 -11 36 -17 43 -5 6 -5 12 -1 12 13 0 39 -43 35
-59 -1 -8 3 -12 12 -8 16 6 37 -10 37 -27 0 -6 -4 -5 -9 2 -7 11 -9 10 -14 -3
-4 -9 -3 -13 3 -10 9 6 14 -8 11 -28 -1 -5 3 -6 9 -2 6 3 8 11 5 16 -4 5 -1 9
4 9 10 0 15 -14 12 -33 -1 -5 3 -6 8 -3 11 7 54 -62 46 -74 -3 -5 3 -18 14
-29 11 -11 17 -22 14 -25 -4 -3 1 -6 10 -6 10 0 17 -4 17 -10 0 -5 -5 -10 -10
-10 -6 0 -5 -6 2 -14 7 -8 15 -12 18 -11 3 2 6 -5 6 -16 0 -10 -4 -19 -9 -19
-5 0 -5 -5 0 -12 11 -15 24 -48 19 -48 -9 0 -42 76 -39 88 3 6 -3 12 -12 12
-12 0 -15 5 -11 17 4 10 4 14 0 11 -10 -11 -46 40 -38 53 5 8 3 9 -6 4 -10 -6
-12 -4 -7 9 4 9 3 15 -2 12 -11 -7 -44 42 -36 54 3 6 -1 7 -9 4 -9 -3 -16 -2
-16 3 0 5 -25 37 -56 71 -31 34 -51 62 -45 62 6 0 11 -5 11 -12 0 -6 3 -8 6
-5 9 9 -16 38 -27 31 -5 -3 -8 0 -7 8 2 7 -4 12 -13 10 -8 -1 -26 10 -40 25
-13 15 -17 22 -8 15 14 -10 18 -10 22 1 4 10 -2 13 -21 11 -33 -3 -69 25 -50
38 9 6 7 8 -7 6 -25 -3 -77 31 -68 45 3 6 1 7 -5 3 -13 -8 -64 22 -57 34 3 4
-3 14 -13 21 -15 13 -16 12 -3 -3 7 -10 12 -18 10 -18 -12 1 -219 107 -215
111 2 2 -5 4 -17 5 -12 0 -65 12 -117 27 -145 39 -239 51 -420 51 -168 0 -262
-10 -405 -45 -263 -62 -525 -232 -707 -455 -28 -35 -56 -61 -61 -57 -6 4 -8 0
-5 -9 7 -18 -75 -141 -87 -130 -5 4 -5 2 -1 -5 10 -17 -24 -80 -34 -64 -5 9
-9 8 -13 -4 -4 -9 -3 -13 3 -10 6 3 10 1 10 -4 0 -15 -63 -141 -71 -141 -6 0
-32 65 -44 110 l-6 25 15 -25 c18 -29 20 -23 6 14 -11 31 8 33 26 3 9 -16 12
-13 27 23 9 24 21 39 26 35 7 -4 8 1 4 11 -4 12 -3 15 5 10 7 -4 10 -2 7 6 -9
23 32 77 54 73 11 -2 23 0 26 5 3 5 -4 7 -15 5 -11 -2 -20 -1 -20 3 0 17 72
112 80 107 6 -3 7 0 4 8 -3 8 2 19 9 26 23 18 32 -17 11 -41 -10 -10 -15 -20
-13 -22 2 -2 19 17 38 43 19 25 25 38 14 28 -19 -17 -21 -17 -27 -1 -8 20 92
134 112 128 7 -2 10 1 7 6 -3 5 11 24 31 42 209 186 479 307 744 334 30 4 56
7 58 9 1 1 35 3 75 4 51 1 68 -2 57 -9z m5730 -50 c351 -44 627 -192 829 -445
71 -89 145 -211 136 -225 -4 -6 -1 -9 6 -8 19 5 89 -173 125 -319 14 -58 15
-77 6 -98 -7 -14 -10 -43 -7 -63 10 -73 12 -111 5 -107 -4 3 -8 15 -8 27 0 19
-17 121 -37 228 -3 14 2 7 9 -15 8 -22 15 -49 16 -60 1 -11 4 -14 7 -8 6 16
-26 127 -34 119 -4 -4 -19 32 -35 80 -34 105 -105 247 -165 331 -24 34 -42 67
-38 73 4 6 3 9 -2 8 -5 -2 -47 35 -94 81 -144 144 -287 231 -482 296 -223 73
-149 70 -1607 67 -718 -2 -1306 -5 -1307 -6 -2 -1 -3 -323 -3 -714 -1 -391 -4
-711 -8 -711 -24 4 -30 -5 -28 -41 0 -22 -2 -40 -6 -40 -4 0 -7 28 -7 63 0 34
-2 385 -6 779 l-7 716 29 4 c78 9 2636 -3 2713 -12z m-3047 -75 c-2 -81 -3
-148 -2 -175 0 -8 -3 -85 -6 -170 -3 -85 -6 -261 -7 -391 -1 -183 -4 -234 -14
-225 -6 6 -8 13 -4 16 5 3 5 42 1 87 -3 45 -4 80 0 77 4 -2 5 20 2 49 -4 41
-10 380 -13 728 l0 46 -592 -4 c-326 -3 -595 -7 -597 -9 -2 -2 -3 -137 -3
-301 1 -314 -2 -350 -23 -350 -10 0 -11 6 -4 25 5 14 7 27 4 30 -3 3 -5 0 -5
-6 0 -7 -4 -12 -9 -12 -11 0 -15 652 -4 663 3 4 293 6 642 5 l636 -3 -2 -80z
m-7690 -275 c177 -34 261 -68 385 -153 230 -158 364 -400 417 -752 8 -55 15
-108 15 -117 0 -17 -20 -18 -285 -18 l-284 0 -7 38 c-29 172 -71 269 -149 345
-86 85 -194 127 -329 127 -308 0 -504 -217 -570 -628 -40 -249 -46 -714 -12
-962 42 -304 143 -517 294 -614 98 -63 148 -78 286 -84 171 -7 292 24 423 107
l73 46 0 293 0 292 -250 0 -250 0 2 258 3 257 533 3 532 2 0 -587 c0 -324 2
-626 3 -673 l3 -84 -61 -71 c-34 -39 -60 -76 -59 -83 1 -7 0 -8 -3 -2 -9 20
-24 10 -18 -12 5 -17 4 -19 -3 -9 -8 11 -20 5 -62 -31 -284 -248 -844 -345
-1250 -217 -90 29 -239 113 -318 179 -283 237 -436 600 -483 1140 -15 170 -6
623 15 775 45 324 135 600 252 777 65 97 198 235 290 298 134 93 279 149 437
169 124 16 320 12 430 -9z m5244 9 c228 -31 431 -131 602 -298 160 -156 291
-414 355 -702 57 -256 75 -452 69 -759 -11 -622 -149 -1047 -432 -1331 -175
-175 -397 -277 -651 -297 -376 -30 -657 60 -893 288 -243 233 -386 576 -431
1035 -30 302 -26 573 14 847 59 409 179 682 396 908 170 177 359 273 603 309
83 13 278 13 368 0z m8658 -23 c381 -99 606 -370 644 -775 29 -314 -77 -596
-284 -757 -38 -30 -80 -57 -92 -60 -34 -9 -28 -17 33 -43 174 -75 317 -261
376 -486 20 -78 23 -114 23 -270 0 -203 -14 -293 -68 -429 -38 -95 -84 -168
-162 -254 -169 -187 -387 -281 -685 -298 -339 -20 -649 105 -837 336 -111 136
-185 337 -199 539 l-7 101 288 -2 289 -3 13 -80 c8 -44 24 -102 37 -130 81
-175 288 -264 478 -205 195 60 292 224 281 477 -6 155 -45 265 -118 339 -86
86 -192 114 -438 114 l-167 0 2 258 3 257 185 6 c154 5 194 10 238 27 160 62
235 195 235 412 0 212 -64 340 -202 404 -60 27 -201 29 -278 3 -120 -41 -197
-155 -218 -320 l-6 -47 -287 2 -286 3 3 60 c8 182 91 399 207 538 138 166 332
269 579 307 108 16 308 5 420 -24z m-11145 -49 c163 -47 307 -132 408 -242 70
-77 146 -217 185 -340 63 -201 68 -490 12 -711 -52 -206 -180 -401 -331 -503
-43 -29 -80 -59 -82 -66 -3 -11 199 -520 333 -840 104 -249 165 -393 201 -479
19 -44 33 -80 31 -82 -6 -6 -614 -13 -623 -7 -6 5 -23 37 -38 73 -94 230 -308
771 -358 905 -33 88 -72 185 -86 215 l-27 55 -208 2 -208 3 1 -621 c1 -341 -1
-623 -4 -627 -3 -3 -133 -5 -288 -4 l-283 0 -3 1644 c-1 903 0 1648 2 1653 2
7 219 8 637 4 l634 -5 95 -27z m4600 -1148 c5 -1084 7 -1189 23 -1248 65 -239
221 -361 462 -361 260 0 415 130 471 395 15 71 17 203 21 1235 2 635 5 1155 6
1157 1 1 132 3 290 4 l289 2 -1 -1164 c-1 -1247 -1 -1256 -52 -1439 -115 -414
-382 -663 -789 -736 -117 -21 -368 -21 -490 1 -229 39 -448 170 -586 347 -86
110 -164 299 -211 508 -15 67 -17 199 -20 1269 -2 657 -2 1199 0 1205 3 8 95
11 293 10 l289 -1 5 -1184z m3340 1172 c258 -33 505 -196 643 -424 143 -238
192 -578 128 -894 -80 -390 -335 -671 -686 -754 -79 -19 -127 -22 -405 -26
l-315 -5 0 -591 0 -592 -292 -3 -293 -2 0 1648 c0 907 2 1651 4 1653 9 8 1144
-1 1216 -10z m4884 -176 c-6 -16 -24 -21 -24 -7 0 11 11 22 21 22 5 0 6 -7 3
-15z m-11956 -101 c-6 -13 -15 -21 -21 -17 -5 3 -5 8 -1 12 5 3 9 12 10 19 3
34 4 37 13 23 6 -9 5 -23 -1 -37z m22 -35 c0 -6 7 -17 15 -26 9 -8 13 -18 10
-21 -3 -3 -12 3 -21 14 -15 18 -15 17 -9 -11 8 -35 4 -32 -20 15 -18 34 -18
35 0 20 17 -14 18 -13 12 3 -3 9 -2 17 3 17 6 0 10 -5 10 -11z m-5186 -32 c-2
-23 -53 -107 -64 -107 -6 0 -10 5 -10 11 0 5 5 7 12 3 8 -5 9 -2 5 9 -4 11 -1
17 9 17 11 0 13 6 9 21 -5 16 -4 19 6 14 9 -6 11 -3 6 8 -3 10 -2 17 3 17 5 0
7 7 3 16 -4 12 -2 15 8 12 8 -3 13 -12 13 -21z m7986 13 c0 -5 -8 -10 -17 -10
-15 0 -16 2 -3 10 19 12 20 12 20 0z m-22 -70 c0 -16 -3 -30 -7 -30 -4 0 -7
10 -5 23 1 12 3 25 3 30 2 19 8 4 9 -23z m22 -44 c0 -3 -4 -8 -10 -11 -5 -3
-10 -1 -10 4 0 6 5 11 10 11 6 0 10 -2 10 -4z m-8029 -49 c-10 -9 -11 -8 -5 6
3 10 9 15 12 12 3 -3 0 -11 -7 -18z m-61 -172 c0 -8 -4 -15 -10 -15 -5 0 -7 7
-4 15 4 8 8 15 10 15 2 0 4 -7 4 -15z m9308 -56 c-18 -12 -23 16 -6 35 11 12
13 11 16 -6 2 -12 -2 -25 -10 -29z m-9331 -22 c-12 -53 -24 -62 -24 -17 0 17
3 26 7 20 4 -7 10 3 14 21 3 18 8 30 10 28 3 -2 -1 -25 -7 -52z m13519 4 c-1
-31 -16 -33 -16 -2 0 15 8 31 15 31 2 0 2 -13 1 -29z m-4199 -23 c-3 -8 -6 -5
-6 6 -1 11 2 17 5 13 3 -3 4 -12 1 -19z m186 -12 c-4 -6 -8 -5 -11 2 -3 10 -7
10 -18 1 -8 -6 -14 -8 -14 -4 0 4 8 14 17 21 19 13 37 -1 26 -20z m-9543 -7
c0 -5 -4 -9 -10 -9 -5 0 -10 7 -10 16 0 8 5 12 10 9 6 -3 10 -10 10 -16z
m9514 -24 c-4 -8 -8 -15 -10 -15 -2 0 -4 7 -4 15 0 8 4 15 10 15 5 0 7 -7 4
-15z m-9522 -9 c-12 -16 -32 -90 -31 -112 1 -11 5 0 11 24 5 23 14 42 20 42 5
0 8 7 4 15 -3 8 -1 15 4 15 6 0 10 8 10 17 0 9 3 14 6 11 7 -8 -17 -128 -26
-128 -4 0 -5 -11 -2 -25 2 -14 0 -25 -7 -25 -5 0 -8 7 -5 15 4 8 2 15 -4 15
-6 0 -12 -6 -15 -12 -2 -7 -7 -11 -10 -8 -3 3 1 41 10 86 10 56 19 81 29 81 8
0 10 -5 6 -11z m9648 -26 c0 -48 -35 -90 -72 -89 -23 0 -23 0 -2 9 12 5 25 14
30 21 5 8 3 10 -7 4 -12 -8 -12 -6 0 9 10 12 16 13 21 6 9 -15 20 12 20 51 0
16 2 29 5 29 3 0 5 -18 5 -40z m3927 -12 c-2 -13 -4 -5 -4 17 -1 22 1 32 4 23
2 -10 2 -28 0 -40z m-4052 -26 c-3 -3 -11 0 -18 7 -9 10 -8 11 6 5 10 -3 15
-9 12 -12z m10 -40 c11 -6 15 -12 9 -12 -16 0 -64 39 -64 52 0 6 8 2 18 -9 9
-11 26 -25 37 -31z m4048 18 c3 -11 1 -20 -4 -20 -5 0 -9 9 -9 20 0 11 2 20 4
20 2 0 6 -9 9 -20z m-13814 -21 c-19 -12 -29 -11 -29 2 0 5 5 7 10 4 6 -3 10
-1 10 5 0 6 5 8 11 4 8 -4 7 -9 -2 -15z m1 -19 c0 -5 -10 -10 -22 -9 -22 0
-22 1 -3 9 11 5 21 9 23 9 1 1 2 -3 2 -9z m9627 -37 c-3 -10 -5 -2 -5 17 0 19
2 27 5 18 2 -10 2 -26 0 -35z m4192 2 c0 -5 -4 -3 -9 5 -5 8 -9 22 -9 30 0 16
17 -16 18 -35z m-18 -28 c0 -27 2 -29 9 -12 7 14 8 8 3 -20 -7 -49 -13 -58
-13 -21 0 15 -3 25 -7 23 -5 -3 -8 12 -9 34 0 21 3 36 8 33 4 -3 8 -20 9 -37z
m-13609 1 c-6 -6 -15 -8 -19 -4 -4 4 -1 11 7 16 19 12 27 3 12 -12z m25 -10
c-3 -8 -6 -5 -6 6 -1 11 2 17 5 13 3 -3 4 -12 1 -19z m-27 -38 c0 -5 -2 -10
-4 -10 -3 0 -8 5 -11 10 -3 6 -1 10 4 10 6 0 11 -4 11 -10z m16680 1 c0 -6 -4
-13 -10 -16 -5 -3 -10 1 -10 9 0 9 5 16 10 16 6 0 10 -4 10 -9z m-6883 -63
c-3 -8 -6 -5 -6 6 -1 11 2 17 5 13 3 -3 4 -12 1 -19z m3820 -25 c-3 -10 -5 -2
-5 17 0 19 2 27 5 18 2 -10 2 -26 0 -35z m3063 33 c0 -3 -4 -8 -10 -11 -5 -3
-10 -1 -10 4 0 6 5 11 10 11 6 0 10 -2 10 -4z m-6870 -66 c0 -5 -4 -10 -10
-10 -5 0 -10 5 -10 10 0 6 5 10 10 10 6 0 10 -4 10 -10z m3807 -12 c-3 -8 -6
-5 -6 6 -1 11 2 17 5 13 3 -3 4 -12 1 -19z m3343 -46 c0 -5 -13 -7 -30 -4 -16
2 -30 6 -30 8 0 2 14 4 30 4 17 0 30 -4 30 -8z m-3364 -29 c-10 -10 -19 5 -10
18 6 11 8 11 12 0 2 -7 1 -15 -2 -18z m3374 7 c0 6 4 9 10 5 5 -3 7 -12 3 -21
-3 -9 0 -14 7 -12 6 2 16 -7 20 -19 10 -24 -23 -83 -50 -90 -11 -3 -12 -2 -3
4 18 13 -9 98 -30 98 -9 0 -19 4 -23 8 -4 4 0 7 9 7 10 0 17 7 17 15 0 13 4
14 20 5 14 -8 20 -8 20 0z m-3358 -32 c-8 -8 -9 -4 -5 13 4 13 8 18 11 10 2
-7 -1 -18 -6 -23z m3278 7 c0 -8 -4 -15 -10 -15 -5 0 -7 7 -4 15 4 8 8 15 10
15 2 0 4 -7 4 -15z m-3287 -137 c0 -39 -24 -119 -34 -112 -5 3 -5 13 1 24 13
24 13 43 0 35 -6 -4 -8 -10 -5 -15 3 -4 1 -10 -3 -12 -5 -1 -12 -16 -15 -33
-3 -16 -4 -24 -1 -17 6 13 24 7 24 -9 0 -6 -4 -7 -10 -4 -5 3 -10 -1 -10 -10
0 -9 4 -13 10 -10 6 3 7 -1 4 -9 -9 -22 -20 -12 -28 24 -3 19 4 69 19 128 14
53 25 113 26 132 1 27 4 21 12 -25 5 -33 10 -72 10 -87z m3253 75 c2 -12 17
-29 32 -37 15 -9 21 -15 14 -16 -26 0 -62 48 -61 82 1 19 3 25 6 13 2 -11 6
-30 9 -42z m-3238 12 c-3 -3 -9 2 -12 12 -6 14 -5 15 5 6 7 -7 10 -15 7 -18z
m2994 7 c3 -11 0 -19 -7 -19 -7 0 -10 8 -7 19 2 10 6 18 7 18 1 0 5 -8 7 -18z
m319 -13 c10 -6 7 -8 -9 -6 -15 1 -22 8 -22 22 0 15 2 17 9 6 5 -7 15 -17 22
-22z m-7124 -11 c-3 -8 -6 -5 -6 6 -1 11 2 17 5 13 3 -3 4 -12 1 -19z m6775
-17 c8 11 9 10 4 -3 -3 -10 -1 -18 4 -18 6 0 10 -5 10 -12 0 -6 -3 -8 -7 -5
-3 4 -11 3 -17 -2 -8 -6 -11 1 -12 22 -1 18 1 26 4 18 4 -11 6 -11 14 0z m363
-9 c-3 -3 -11 0 -18 7 -9 10 -8 11 6 5 10 -3 15 -9 12 -12z m-371 -61 c3 -5
-1 -11 -9 -15 -8 -3 -15 -11 -15 -18 0 -9 3 -9 11 2 8 12 10 12 7 1 -2 -8 -12
-15 -21 -17 -20 -3 -20 -2 -5 31 12 26 23 32 32 16z m-44 -91 c0 -7 -6 -6 -15
4 -8 8 -15 20 -15 26 0 7 6 6 15 -4 8 -8 15 -20 15 -26z m-16669 -4 c5 3 9 0
9 -6 0 -15 -23 -7 -26 8 -1 7 0 8 3 2 2 -5 9 -8 14 -4z m89 10 c0 -3 -4 -8
-10 -11 -5 -3 -10 -1 -10 4 0 6 5 11 10 11 6 0 10 -2 10 -4z m-30 -16 c0 -5
-10 -10 -22 -9 -22 0 -22 1 -3 9 11 5 21 9 23 9 1 1 2 -3 2 -9z m16837 4 c-3
-3 -12 -4 -19 -1 -8 3 -5 6 6 6 11 1 17 -2 13 -5z m-219 -31 c-10 -2 -28 -2
-40 0 -13 2 -5 4 17 4 22 1 32 -1 23 -4z m155 0 c-13 -2 -33 -2 -45 0 -13 2
-3 4 22 4 25 0 35 -2 23 -4z m-3150 -74 c-8 -8 -13 -7 -18 2 -5 8 -4 10 3 5 7
-4 12 -2 12 5 0 7 3 9 7 6 4 -4 2 -12 -4 -18z m-13993 -103 c0 -3 -4 -8 -10
-11 -5 -3 -10 -1 -10 4 0 6 5 11 10 11 6 0 10 -2 10 -4z m390 -160 c0 -2 -9
-6 -20 -9 -11 -3 -18 -1 -14 4 5 9 34 13 34 5z m13375 -104 c-11 -9 -14 -10
-7 -2 15 18 16 34 0 24 -7 -5 -8 -3 -3 5 5 9 10 10 18 2 8 -8 6 -16 -8 -29z
m-31 -20 c3 -5 -1 -9 -9 -9 -8 0 -12 4 -9 9 3 4 7 8 9 8 2 0 6 -4 9 -8z m-37
-37 c0 -8 -4 -12 -9 -9 -5 3 -6 10 -3 15 9 13 12 11 12 -6z m-13237 -223 c0
-8 -101 -5 -109 4 -2 2 21 4 52 4 32 0 57 -4 57 -8z m25 -12 c3 -5 1 -10 -4
-10 -6 0 -11 5 -11 10 0 6 2 10 4 10 3 0 8 -4 11 -10z m-218 -16 c-3 -3 -12
-4 -19 -1 -8 3 -5 6 6 6 11 1 17 -2 13 -5z m140 0 c-3 -3 -12 -4 -19 -1 -8 3
-5 6 6 6 11 1 17 -2 13 -5z m40 0 c-3 -3 -12 -4 -19 -1 -8 3 -5 6 6 6 11 1 17
-2 13 -5z m13703 3 c0 -2 -10 -12 -22 -23 l-23 -19 19 23 c18 21 26 27 26 19z
m-65 -56 c3 -5 2 -12 -3 -15 -5 -3 -9 1 -9 9 0 17 3 19 12 6z m-68 -66 c0 -8
-4 -12 -9 -9 -5 3 -6 10 -3 15 9 13 12 11 12 -6z m-11 -37 c4 -6 3 -8 -3 -5
-6 4 -16 0 -23 -8 -7 -8 -17 -15 -23 -15 -5 0 0 9 13 20 27 23 27 23 36 8z
m521 -90 c-3 -8 -6 -5 -6 6 -1 11 2 17 5 13 3 -3 4 -12 1 -19z m-2930 -10 c-3
-8 -6 -5 -6 6 -1 11 2 17 5 13 3 -3 4 -12 1 -19z m-6838 -118 c-1 -17 -23 32
-33 70 -3 14 3 7 14 -15 11 -22 19 -47 19 -55z m-5159 55 c31 -16 56 -72 46
-103 -10 -29 -47 -59 -84 -67 -29 -6 -37 -3 -66 28 -30 32 -40 36 -103 42 -39
3 -192 7 -342 7 -149 1 -274 5 -277 10 -3 5 16 8 43 7 84 -3 111 4 43 11 -58
6 -54 7 40 7 72 0 92 -2 65 -7 -29 -5 -14 -7 55 -7 65 0 84 2 60 7 l-35 7 38
2 c23 1 37 -4 38 -11 0 -10 2 -10 6 0 2 6 12 12 21 12 15 0 15 -2 2 -10 -9 -6
-10 -10 -3 -10 6 0 14 4 17 8 3 5 71 12 152 15 125 5 149 9 168 25 48 44 72
50 116 27z m14736 -1 c18 -14 18 -14 -6 -3 -31 14 -36 19 -24 19 6 0 19 -7 30
-16z m-536 -21 c0 -2 -8 -3 -17 -1 -12 2 -17 -2 -15 -12 3 -12 1 -13 -10 -2
-11 11 -10 14 1 21 13 9 41 4 41 -6z m-9010 -37 c0 -12 -5 -7 -19 24 -11 24
-11 24 3 6 9 -11 16 -24 16 -30z m9459 21 c0 -9 -2 -8 -6 1 -2 6 -10 9 -15 6
-7 -4 -8 -2 -4 5 9 13 26 5 25 -12z m-554 -7 c-3 -5 -12 -10 -18 -10 -7 0 -6
4 3 10 19 12 23 12 15 0z m35 6 c0 -3 -4 -8 -10 -11 -5 -3 -10 -1 -10 4 0 6 5
11 10 11 6 0 10 -2 10 -4z m-14693 -22 c-3 -3 -12 -4 -19 -1 -8 3 -5 6 6 6 11
1 17 -2 13 -5z m15320 -28 c-2 -19 -6 -38 -10 -42 -4 -4 -7 -16 -7 -27 0 -28
-12 -13 -16 19 -1 15 4 33 12 41 8 8 14 21 14 29 0 8 2 14 4 14 3 0 4 -15 3
-34z m-707 20 c0 -2 -8 -10 -17 -17 -16 -13 -17 -12 -4 4 13 16 21 21 21 13z
m-14920 -22 c0 -2 -7 -4 -15 -4 -8 0 -15 4 -15 10 0 5 7 7 15 4 8 -4 15 -8 15
-10z m6063 -28 c4 4 7 2 7 -4 0 -22 -20 -12 -30 14 -14 36 -11 45 4 11 7 -15
15 -24 19 -21z m12757 37 c0 -5 -18 -8 -40 -9 -22 -1 -37 3 -34 7 6 11 74 12
74 2z m-18883 -9 c-3 -3 -12 -4 -19 -1 -8 3 -5 6 6 6 11 1 17 -2 13 -5z
m18793 -8 c0 -7 -7 -19 -15 -26 -10 -9 -15 -9 -15 -1 0 6 5 11 10 11 6 0 10 5
10 11 0 5 -5 7 -12 3 -7 -4 -8 -3 -4 4 10 16 26 15 26 -2z m-3845 -14 c-3 -3
-11 0 -18 7 -9 10 -8 11 6 5 10 -3 15 -9 12 -12z m26 -5 c-10 -9 -11 -8 -5 6
3 10 9 15 12 12 3 -3 0 -11 -7 -18z m2196 17 c-3 -3 -12 -4 -19 -1 -8 3 -5 6
6 6 11 1 17 -2 13 -5z m-1592 -24 c3 -5 1 -10 -4 -10 -6 0 -11 5 -11 10 0 6 2
10 4 10 3 0 8 -4 11 -10z m1515 4 c0 -8 -19 -13 -24 -6 -3 5 1 9 9 9 8 0 15
-2 15 -3z m-2228 -51 c-19 -16 -32 -17 -32 -2 0 5 4 7 10 4 5 -3 13 7 16 22 7
24 8 25 15 8 4 -13 2 -24 -9 -32z m75 41 c-3 -3 -12 -4 -19 -1 -8 3 -5 6 6 6
11 1 17 -2 13 -5z m3792 -7 c10 3 22 0 26 -6 3 -6 3 -11 -2 -10 -36 6 -44 -2
-38 -33 7 -31 6 -32 -9 -13 -15 20 -15 20 -16 -2 0 -12 4 -25 10 -28 6 -3 -1
-17 -15 -32 -13 -15 -21 -31 -18 -36 3 -6 1 -7 -5 -4 -5 4 -8 16 -5 27 3 11
10 17 16 13 6 -4 8 0 4 11 -4 10 -3 15 3 11 6 -3 10 -1 10 4 0 6 -5 11 -10 11
-15 0 0 53 19 67 11 9 12 12 3 13 -8 0 -10 5 -6 12 5 8 9 9 11 1 2 -6 12 -9
22 -6z m-3879 -7 c0 -5 -8 -10 -17 -10 -15 0 -16 2 -3 10 19 12 20 12 20 0z
m755 0 c3 -5 1 -10 -4 -10 -6 0 -11 5 -11 10 0 6 2 10 4 10 3 0 8 -4 11 -10z
m35 0 c0 -5 -5 -10 -11 -10 -5 0 -7 5 -4 10 3 6 8 10 11 10 2 0 4 -4 4 -10z
m-915 -40 c10 -8 15 -8 20 0 4 6 13 9 20 6 8 -3 16 0 19 7 3 9 5 9 5 -1 1 -15
-38 -32 -68 -29 -12 1 -21 7 -21 13 0 18 -41 22 -72 7 -36 -17 -36 -8 -1 10
28 15 71 9 98 -13z m1536 -50 c-4 -3 -13 -14 -20 -25 -9 -15 -11 -16 -7 -2 3
9 1 17 -4 17 -17 0 -11 18 8 23 10 3 6 5 -10 6 -16 0 -28 5 -28 10 0 5 8 8 18
7 12 -1 16 5 14 19 -1 12 5 6 17 -15 10 -19 16 -37 12 -40z m-1446 40 c-3 -5
-12 -10 -18 -10 -7 0 -6 4 3 10 19 12 23 12 15 0z m-12520 -10 c3 -5 1 -10 -4
-10 -6 0 -11 5 -11 10 0 6 2 10 4 10 3 0 8 -4 11 -10z m40 -8 c-3 -3 -11 0
-18 7 -9 10 -8 11 6 5 10 -3 15 -9 12 -12z m11811 -36 c10 -4 14 3 14 26 0 17
2 29 4 27 3 -2 8 -220 11 -484 8 -504 5 -543 -35 -580 -11 -10 -34 -18 -52
-18 -297 -1 -638 6 -638 13 0 5 66 11 148 13 l147 3 -165 3 c-262 5 -146 16
199 19 232 2 317 6 323 15 4 7 8 216 9 465 1 248 3 457 4 462 1 6 4 29 5 53 2
30 4 35 7 15 2 -14 11 -29 19 -32z m-11872 28 c3 -8 2 -12 -4 -9 -6 3 -10 10
-10 16 0 14 7 11 14 -7z m12506 12 c0 -2 -7 -9 -15 -16 -13 -11 -14 -10 -9 4
5 14 24 23 24 12z m-13090 -51 c0 -5 -5 -3 -10 5 -5 8 -10 20 -10 25 0 6 5 3
10 -5 5 -8 10 -19 10 -25z m48 -11 c8 -16 8 -21 -3 -21 -7 0 -11 6 -8 14 4 9
0 11 -11 7 -11 -4 -15 -13 -11 -28 5 -18 4 -18 -5 -4 -11 18 -3 51 11 42 5 -3
9 0 9 7 0 15 4 11 18 -17z m592 -11 c0 15 2 16 14 5 12 -11 12 -13 0 -16 -8
-2 -14 -7 -14 -12 0 -5 6 -7 13 -4 7 2 21 -2 32 -10 18 -14 18 -15 3 -16 -22
0 -23 -9 -2 -38 8 -12 13 -22 10 -22 -5 0 -89 116 -100 140 -4 8 4 2 18 -15
20 -24 26 -26 26 -12z m12279 6 c6 9 11 10 15 2 4 -6 1 -11 -6 -11 -8 -1 -6
-6 6 -15 11 -8 15 -15 8 -15 -16 0 -52 41 -51 59 0 9 5 5 10 -9 8 -18 12 -21
18 -11z m108 9 c-3 -8 -6 -5 -6 6 -1 11 2 17 5 13 3 -3 4 -12 1 -19z m1550
-22 c-12 -10 -21 -23 -19 -28 1 -5 -2 -7 -8 -3 -12 7 9 45 24 42 6 -1 10 7 8
18 -2 17 -1 17 8 5 7 -11 4 -20 -13 -34z m-9345 20 c7 4 8 2 4 -5 -9 -13 -26
-5 -25 12 0 9 2 8 6 -1 2 -6 10 -9 15 -6z m9298 4 c0 -5 -2 -10 -4 -10 -3 0
-8 5 -11 10 -3 6 -1 10 4 10 6 0 11 -4 11 -10z m-540 -11 c0 -5 -4 -7 -10 -4
-5 3 -10 1 -10 -6 0 -7 -3 -10 -6 -6 -8 7 4 27 17 27 5 0 9 -5 9 -11z m-8691
-22 c0 -9 -2 -8 -6 1 -2 6 -10 9 -15 6 -7 -4 -8 -2 -4 5 9 13 26 5 25 -12z
m2571 -37 c-24 -34 -42 -48 -34 -26 3 9 11 16 17 16 6 0 8 3 4 6 -7 7 14 33
26 34 5 0 -1 -13 -13 -30z m-2580 6 c0 -3 -4 -8 -10 -11 -5 -3 -10 -1 -10 4 0
6 5 11 10 11 6 0 10 -2 10 -4z m8740 -47 c0 8 2 12 5 9 3 -3 2 -13 -1 -23 -6
-15 -10 -12 -25 16 -10 19 -18 39 -18 44 0 6 8 -6 19 -25 11 -19 19 -29 20
-21z m2351 28 c-10 -9 -11 -8 -5 6 3 10 9 15 12 12 3 -3 0 -11 -7 -18z m-5144
-9 c-3 -8 -6 -5 -6 6 -1 11 2 17 5 13 3 -3 4 -12 1 -19z m-11173 -4 c3 -8 2
-12 -4 -9 -6 3 -10 10 -10 16 0 14 7 11 14 -7z m8716 -30 c0 -3 -7 -1 -15 6
-8 7 -15 17 -15 22 0 5 7 3 15 -6 8 -8 15 -18 15 -22z m-8710 -3 c0 12 2 12 9
0 5 -8 7 -20 4 -28 -3 -7 -2 -13 1 -13 4 0 10 10 15 21 6 18 17 6 72 -87 103
-174 273 -363 439 -486 89 -66 276 -167 386 -208 l79 -29 -55 4 c-31 1 -58 -2
-61 -7 -15 -24 -216 77 -376 188 -172 120 -271 221 -392 399 -61 89 -175 300
-136 251 11 -14 15 -16 15 -5z m5207 -3 c-3 -8 -6 -5 -6 6 -1 11 2 17 5 13 3
-3 4 -12 1 -19z m11663 18 c0 -3 -4 -8 -10 -11 -5 -3 -10 -1 -10 4 0 6 5 11
10 11 6 0 10 -2 10 -4z m-10865 -79 c4 5 5 3 1 -4 -3 -6 -2 -14 3 -17 5 -4 11
-1 14 6 2 7 3 5 1 -5 -3 -20 64 -79 79 -70 6 3 7 1 4 -4 -4 -6 19 -28 51 -49
68 -45 87 -61 52 -44 -72 36 -204 144 -261 213 l-42 52 44 -43 c25 -23 49 -39
54 -35z m2731 38 c9 -8 11 -15 6 -15 -5 0 -15 7 -22 15 -7 8 -9 15 -6 15 4 0
14 -7 22 -15z m8125 6 c5 8 9 9 9 3 0 -5 -6 -18 -13 -29 -11 -14 -16 -15 -22
-5 -6 9 -4 11 5 5 9 -5 11 -1 6 16 -3 13 -3 18 0 10 5 -11 8 -11 15 0z m-8011
-131 c3 -3 18 -16 34 -28 16 -12 24 -22 18 -22 -5 0 -41 30 -79 68 -38 37 -49
49 -24 27 25 -22 48 -42 51 -45z m1550 85 c0 -2 -10 -9 -22 -15 -22 -11 -22
-10 -4 4 21 17 26 19 26 11z m6435 -4 c3 -5 2 -12 -3 -15 -5 -3 -9 1 -9 9 0
17 3 19 12 6z m-2841 -17 c3 -8 2 -12 -4 -9 -6 3 -10 10 -10 16 0 14 7 11 14
-7z m-11504 -9 c-7 -9 -15 -13 -19 -10 -3 3 1 10 9 15 21 14 24 12 10 -5z
m3565 5 c3 -5 1 -10 -4 -10 -6 0 -11 5 -11 10 0 6 2 10 4 10 3 0 8 -4 11 -10z
m-5655 -42 l32 -43 -36 39 c-20 21 -36 40 -36 42 0 11 11 0 40 -38z m3437 10
c-3 -7 -5 -2 -5 12 0 14 2 19 5 13 2 -7 2 -19 0 -25z m10838 -36 c71 -68 67
-68 -17 1 -37 31 -67 67 -55 67 1 0 33 -30 72 -68z m-14315 43 c0 -7 -30 -13
-34 -7 -3 4 4 9 15 9 10 1 19 0 19 -2z m2100 2 c0 -2 -12 -14 -27 -28 l-28
-24 24 28 c23 25 31 32 31 24z m3680 -12 c7 -9 8 -15 2 -15 -5 0 -12 7 -16 15
-3 8 -4 15 -2 15 2 0 9 -7 16 -15z m4240 11 c0 -2 -6 -9 -14 -15 -11 -9 -16
-9 -22 0 -4 7 -3 9 4 5 6 -3 13 -2 17 4 6 10 15 14 15 6z m17 -34 c-23 -21
-58 -48 -77 -61 l-35 -22 33 27 c19 16 50 43 70 61 20 18 39 33 44 33 4 0 -11
-17 -35 -38z m4273 28 c0 -5 -2 -10 -4 -10 -3 0 -8 5 -11 10 -3 6 -1 10 4 10
6 0 11 -4 11 -10z m1520 6 c0 -2 -8 -10 -17 -17 -16 -13 -17 -12 -4 4 13 16
21 21 21 13z m-8585 -36 c-30 -34 -205 -145 -191 -122 3 6 34 26 69 46 34 20
78 49 97 66 41 34 51 39 25 10z m6450 -47 c7 -6 15 -10 18 -7 3 3 4 -3 4 -13
-1 -10 4 -17 11 -15 8 1 11 -2 7 -8 -3 -5 -3 -15 1 -21 5 -8 9 -8 14 1 5 8 9
7 13 -5 4 -9 3 -13 -3 -10 -13 8 -13 -5 0 -25 8 -12 10 -12 10 -1 0 11 5 10
20 -4 11 -10 20 -23 20 -29 0 -6 -7 -2 -15 8 -8 11 -15 15 -15 9 0 -12 30 -40
38 -35 2 2 27 -22 55 -53 28 -32 65 -63 81 -70 17 -7 49 -37 71 -66 31 -40 67
-68 155 -121 63 -38 142 -83 175 -100 33 -17 62 -33 65 -37 3 -3 10 -6 15 -7
25 -1 65 -17 65 -26 0 -5 10 -6 21 -3 12 4 19 3 16 -2 -3 -5 4 -9 16 -10 12 0
33 -1 47 -2 23 -2 24 -3 5 -11 -17 -7 -17 -9 -2 -9 9 -1 17 -5 17 -11 0 -5 5
-10 11 -10 6 0 9 7 5 15 -6 18 19 21 30 3 4 -6 3 -8 -3 -5 -6 4 -13 1 -16 -6
-4 -10 5 -13 33 -13 21 1 36 -3 33 -7 -3 -5 1 -7 8 -6 8 1 25 -3 39 -9 86 -37
-171 19 -332 72 -59 20 -140 52 -180 70 -86 40 -326 202 -342 231 -6 10 -33
46 -59 79 -27 33 -54 70 -60 83 -5 13 -14 23 -20 23 -5 0 -7 7 -3 15 3 8 0 14
-7 12 -7 -1 -12 6 -12 15 0 9 -4 20 -9 25 -5 5 -6 2 -1 -6 6 -10 4 -12 -4 -7
-7 5 -10 14 -7 22 3 8 0 13 -6 11 -6 -1 -13 4 -16 12 -3 8 0 11 7 7 6 -4 11
-4 11 1 -1 11 -26 43 -33 43 -4 0 -4 -8 -1 -17 5 -15 4 -16 -5 -3 -23 30 -43
72 -31 65 9 -5 10 -1 6 16 -6 20 -4 18 10 -6 9 -16 22 -35 29 -42z m2769 51
c4 -10 2 -13 -6 -8 -8 5 -9 2 -5 -9 4 -11 1 -17 -7 -17 -8 0 -16 -5 -18 -12
-5 -14 -28 -2 -28 15 0 8 3 8 9 -1 9 -14 22 -2 34 31 8 21 13 22 21 1z
m-12987 -116 c-2 -24 -4 -5 -4 42 0 47 2 66 4 43 2 -24 2 -62 0 -85z m2348
104 c-3 -3 -11 0 -18 7 -9 10 -8 11 6 5 10 -3 15 -9 12 -12z m-5375 -17 c13
-14 21 -25 18 -25 -2 0 -15 11 -28 25 -13 14 -21 25 -18 25 2 0 15 -11 28 -25z
m15296 -10 c-22 -19 -43 -35 -48 -35 -9 0 72 68 82 69 3 0 -13 -15 -34 -34z
m-13711 15 c-3 -5 -16 -15 -28 -21 -19 -9 -19 -8 3 10 28 23 34 26 25 11z
m1395 -10 c0 -5 -8 -10 -17 -10 -15 0 -16 2 -3 10 19 12 20 12 20 0z m15 -20
c-3 -5 -13 -10 -21 -10 -21 0 -17 -19 9 -41 12 -10 17 -18 10 -19 -6 0 -14 6
-16 13 -4 9 -7 9 -15 -1 -6 -9 -9 -2 -10 22 -1 25 3 36 16 39 29 8 33 7 27 -3z
m-1479 -15 c-11 -8 -25 -15 -30 -15 -6 1 0 7 14 15 32 19 40 18 16 0z m14429
-15 c18 15 32 -7 16 -23 -9 -9 -11 -8 -6 6 4 9 5 17 1 17 -8 0 -36 -57 -31
-64 3 -3 2 -4 -2 -1 -3 3 -13 -1 -22 -8 -8 -6 -5 1 7 17 14 18 20 37 17 50 -3
12 -2 15 1 8 4 -9 9 -10 19 -2z m-13678 -22 c-3 -8 -6 -5 -6 6 -1 11 2 17 5
13 3 -3 4 -12 1 -19z m11718 12 c3 -5 1 -10 -4 -10 -6 0 -11 5 -11 10 0 6 2
10 4 10 3 0 8 -4 11 -10z m1220 -11 c-68 -46 -255 -124 -278 -116 -6 2 20 13
59 26 38 12 105 42 149 65 86 47 118 58 70 25z m-14929 -14 c30 -14 54 -27 54
-30 0 -4 -5 -3 -11 1 -6 3 -15 0 -20 -7 -4 -7 -11 -10 -16 -6 -4 5 -2 12 6 16
9 6 6 10 -10 14 -28 7 -39 -1 -19 -13 17 -11 9 -13 -14 -4 -13 5 -14 9 -5 20
9 11 7 14 -10 14 -11 0 -21 5 -21 10 0 14 5 13 66 -15z m11094 15 c0 -5 -4
-10 -10 -10 -5 0 -10 5 -10 10 0 6 5 10 10 10 6 0 10 -4 10 -10z m-9945 -14
c-11 -7 -31 -16 -45 -20 -19 -5 -16 -2 10 13 40 23 65 28 35 7z m14476 -9
c-10 -9 -11 -8 -5 6 3 10 9 15 12 12 3 -3 0 -11 -7 -18z m-15737 -2 c11 -8 15
-15 10 -15 -6 0 -19 7 -30 15 -10 8 -14 14 -9 14 6 0 19 -6 29 -14z m5352 -33
c-5 -4 -86 36 -86 43 0 3 20 -5 45 -17 24 -12 43 -23 41 -26z m8639 38 c3 -5
2 -10 -4 -10 -5 0 -13 5 -16 10 -3 6 -2 10 4 10 5 0 13 -4 16 -10z m-5755 -16
c0 -2 -7 -4 -15 -4 -8 0 -15 4 -15 10 0 5 7 7 15 4 8 -4 15 -8 15 -10z m2958
-356 c-10 -6 -10 -8 0 -8 6 0 12 -4 12 -10 0 -6 -34 -10 -82 -10 -92 0 -99 6
-18 15 55 6 80 18 80 39 0 6 -5 4 -10 -4 -5 -8 -10 -11 -10 -7 0 4 -9 3 -20
-3 -14 -7 -20 -7 -20 0 0 5 7 10 15 10 13 0 15 24 15 155 0 97 4 155 10 155
10 0 14 -48 10 -100 -1 -14 1 -22 5 -18 4 4 9 38 10 75 6 121 9 92 12 -96 3
-141 0 -186 -9 -193z m2732 336 c0 -2 -13 2 -30 11 -16 9 -30 18 -30 21 0 2
14 -2 30 -11 17 -9 30 -18 30 -21z m-5782 -3 c37 -16 74 -31 82 -35 8 -3 2 -4
-14 -1 -30 6 -157 63 -143 64 5 1 39 -12 75 -28z m5912 17 c0 -11 -12 -10 -30
2 -12 7 -10 9 8 7 12 0 22 -5 22 -9z m777 6 c-3 -3 -12 -4 -19 -1 -8 3 -5 6 6
6 11 1 17 -2 13 -5z m-13673 -19 c-17 -8 -44 -17 -60 -20 -26 -6 -27 -5 -9 6
18 12 68 27 90 27 6 0 -4 -6 -21 -13z m1465 -1 c-5 -6 -6 -14 -2 -17 3 -4 1
-7 -5 -7 -7 0 -12 5 -12 10 0 6 -9 10 -21 10 -11 0 -18 4 -15 9 3 5 19 8 35 7
20 0 27 -4 20 -12z m51 10 c0 -2 -9 -8 -20 -14 -15 -8 -18 -8 -14 3 4 11 34
21 34 11z m1217 -16 c2 -15 -1 -18 -6 -10 -4 7 -28 14 -54 15 -59 3 -52 13 10
16 44 1 49 -1 50 -21z m63 13 c0 -5 -7 -11 -15 -15 -8 -3 -15 -1 -15 5 0 6 -4
7 -10 4 -5 -3 -10 -1 -10 4 0 6 11 11 25 11 14 0 25 -4 25 -9z m3241 -31 c14
-10 -103 -146 -166 -194 -33 -25 -74 -57 -91 -71 -23 -19 -31 -21 -31 -10 0 8
7 15 16 15 14 0 14 2 1 10 -9 6 -10 10 -3 10 6 0 13 10 15 23 2 13 10 22 19
21 9 -1 16 4 15 10 0 7 44 60 99 119 84 90 101 104 109 89 5 -9 13 -19 17 -22z
m-7095 14 c57 -19 85 -39 39 -28 -38 9 -95 33 -95 39 0 7 1 7 56 -11z m14024
6 c12 -7 10 -9 -8 -7 -12 0 -22 5 -22 9 0 11 12 10 30 -2z m-7785 -10 c-3 -5
-12 -10 -18 -10 -7 0 -6 4 3 10 19 12 23 12 15 0z m971 -2 c4 -7 3 -8 -4 -4
-17 10 -15 1 4 -14 8 -8 14 -9 13 -4 -5 28 6 23 51 -21 27 -26 47 -52 44 -57
-3 -5 -1 -7 4 -6 11 3 76 -61 69 -68 -2 -2 -18 9 -35 26 -18 16 -36 30 -42 30
-5 0 -10 6 -10 14 0 8 -7 16 -15 20 -27 10 -16 -8 34 -56 27 -27 43 -48 36
-48 -14 0 -168 166 -173 186 -4 17 14 19 24 2z m1799 -8 c-27 -12 -43 -12 -25
0 8 5 22 9 30 9 10 0 8 -3 -5 -9z m6578 -17 c-4 -11 -3 -14 5 -9 18 11 15 2
-8 -24 -11 -13 -20 -18 -20 -11 0 7 -4 10 -10 6 -5 -3 -7 -12 -4 -19 3 -8 1
-17 -5 -21 -15 -9 -14 -28 2 -19 7 4 9 3 4 -2 -5 -5 -14 -9 -20 -9 -7 -1 -11
-7 -9 -14 1 -7 -1 -10 -6 -7 -5 3 -22 -8 -37 -24 -28 -29 -23 -43 5 -17 8 6 6
2 -5 -11 -14 -17 -21 -19 -27 -10 -7 11 -12 5 -10 -13 1 -3 -4 -6 -11 -7 -35
-3 -95 -31 -68 -32 10 0 11 -3 2 -13 -6 -8 -8 -16 -5 -20 8 -7 -102 -88 -191
-140 -62 -36 -263 -113 -340 -130 -114 -26 -224 -42 -214 -33 5 5 158 39 182
40 9 0 17 4 17 9 0 4 4 6 8 3 11 -6 38 11 30 19 -3 4 -15 2 -25 -3 -29 -15
-73 -23 -73 -13 0 5 17 12 38 16 79 14 187 58 315 126 159 86 236 140 336 233
41 39 71 65 67 59 -4 -8 -2 -13 5 -13 6 0 9 8 6 19 -4 18 37 71 50 63 2 -2 7
-1 11 2 3 3 0 6 -8 6 -10 0 -10 3 0 15 16 20 21 19 13 -2z m-6653 -7 c-20 -8
-51 -16 -70 -19 -23 -4 -17 0 20 13 61 21 105 26 50 6z m-6873 -2 c-3 -3 -12
-4 -19 -1 -8 3 -5 6 6 6 11 1 17 -2 13 -5z m340 0 c-3 -3 -12 -4 -19 -1 -8 3
-5 6 6 6 11 1 17 -2 13 -5z m46 -1 c-7 -2 -19 -2 -25 0 -7 3 -2 5 12 5 14 0
19 -2 13 -5z m90 0 c-7 -2 -21 -2 -30 0 -10 3 -4 5 12 5 17 0 24 -2 18 -5z
m50 0 c-7 -2 -19 -2 -25 0 -7 3 -2 5 12 5 14 0 19 -2 13 -5z m1205 0 c-32 -2
-86 -2 -120 0 -35 2 -9 3 57 3 66 0 94 -1 63 -3z m105 0 c-7 -2 -21 -2 -30 0
-10 3 -4 5 12 5 17 0 24 -2 18 -5z m4297 -3 c20 -6 21 -8 5 -8 -11 0 -29 3
-40 8 -25 11 1 11 35 0z m-7333 -6 c-3 -3 -12 -4 -19 -1 -8 3 -5 6 6 6 11 1
17 -2 13 -5z m-104 -21 c-7 -2 -19 -2 -25 0 -7 3 -2 5 12 5 14 0 19 -2 13 -5z
m8060 0 c-7 -2 -21 -2 -30 0 -10 3 -4 5 12 5 17 0 24 -2 18 -5z m4644 -7 c-3
-8 6 -24 19 -37 21 -20 26 -21 34 -9 9 14 11 13 14 -9 0 -5 5 -13 10 -18 5 -5
6 -3 2 5 -4 6 -2 12 3 12 6 0 11 -10 11 -21 0 -20 -1 -21 -25 -5 -14 9 -30 14
-36 11 -5 -4 -8 -3 -7 2 2 4 -1 9 -7 11 -31 10 -45 38 -36 70 1 1 6 2 12 2 6
0 9 -6 6 -14z m-12780 -2 c-3 -3 -12 -4 -19 -1 -8 3 -5 6 6 6 11 1 17 -2 13
-5z m8080 0 c-3 -3 -12 -4 -19 -1 -8 3 -5 6 6 6 11 1 17 -2 13 -5z m4734 -21
c13 -16 12 -17 -3 -4 -10 7 -18 15 -18 17 0 8 8 3 21 -13z m-3834 -48 c0 -18
-14 -20 -19 -3 -3 8 -14 7 -39 -5 l-34 -17 24 20 c28 24 68 27 68 5z m36 -31
c-3 -8 -7 -14 -10 -14 -3 0 -3 7 1 15 3 8 1 15 -4 15 -6 0 -10 5 -10 11 0 8 4
8 14 -1 8 -6 12 -18 9 -26z m3957 -26 c0 -5 4 -7 8 -4 4 2 14 1 22 -5 11 -6 8
-9 -13 -9 -15 0 -30 6 -33 14 -3 9 -12 12 -21 9 -11 -4 -14 -2 -9 5 5 8 0 12
-14 12 -12 0 -18 4 -15 10 7 11 75 -19 75 -32z m-6224 -5 c-7 -7 -26 7 -26 19
0 6 6 6 15 -2 9 -7 13 -15 11 -17z m6257 -43 c5 0 6 4 3 9 -8 12 18 21 34 11
9 -6 6 -10 -10 -15 l-23 -7 24 -14 c13 -7 21 -13 17 -14 -13 0 -158 74 -158
81 0 4 24 -6 53 -22 28 -16 56 -29 60 -29z m-6254 -3 l25 -32 -32 29 c-33 31
-37 36 -24 35 4 0 18 -14 31 -32z m36 15 c-3 -3 -11 0 -18 7 -9 10 -8 11 6 5
10 -3 15 -9 12 -12z m7933 -39 c-23 -24 -45 -32 -31 -10 4 6 8 15 9 20 2 12 3
13 24 13 19 0 19 -1 -2 -23z m-7891 10 c-4 -3 -1 -13 6 -22 11 -14 10 -14 -5
-2 -16 12 -16 31 -1 31 4 0 3 -3 0 -7z m-717 -18 c0 -2 -6 -5 -13 -8 -8 -3
-14 1 -14 8 0 7 6 11 14 8 7 -3 13 -6 13 -8z m771 -22 c13 -17 13 -17 -6 -3
-11 8 -22 16 -24 17 -2 2 0 3 6 3 6 0 17 -8 24 -17z m-51 -8 c11 -13 10 -14
-4 -9 -9 3 -16 10 -16 15 0 13 6 11 20 -6z m-785 -15 c-3 -5 -12 -10 -18 -10
-7 0 -6 4 3 10 19 12 23 12 15 0z m930 -37 c11 -7 16 -13 12 -13 -10 0 -87 51
-87 57 0 5 27 -11 75 -44z m-895 33 c0 -2 -7 -7 -16 -10 -8 -3 -12 -2 -9 4 6
10 25 14 25 6z m816 -27 c4 -8 1 -8 -14 0 -12 6 -24 16 -28 22 -4 8 -1 8 14 0
12 -6 24 -16 28 -22z m61 -30 c21 -12 43 -25 48 -29 6 -4 22 -10 38 -14 15 -3
27 -10 27 -15 0 -5 9 -7 20 -4 11 3 17 10 13 17 -4 6 2 4 13 -4 29 -22 30 -24
12 -17 -10 4 -18 2 -18 -5 0 -7 13 -9 35 -5 25 4 33 2 29 -5 -5 -7 -1 -9 9 -5
10 3 17 2 17 -4 0 -6 4 -8 8 -5 5 3 31 -2 58 -10 186 -56 377 -78 618 -71 335
10 536 52 741 154 49 25 83 38 76 29 -8 -10 -9 -16 -3 -16 6 0 14 5 17 10 3 6
11 10 16 10 6 0 7 -5 3 -12 -5 -8 -2 -9 9 -5 33 13 16 -1 -50 -41 -129 -77
-365 -158 -552 -188 -175 -28 -474 -15 -691 31 -172 36 -436 141 -520 205 -33
26 -20 25 27 -1z m103 -24 c0 -2 -9 -3 -19 -2 -11 0 -17 5 -15 9 3 4 -2 8 -10
8 -9 0 -16 5 -16 10 0 6 13 4 30 -5 17 -9 30 -17 30 -20z m30 -15 c0 -5 -4
-10 -10 -10 -5 0 -10 5 -10 10 0 6 5 10 10 10 6 0 10 -4 10 -10z m-3182 -37
c-19 -5 -25 -23 -8 -23 6 0 10 -5 10 -12 0 -7 -7 -5 -18 5 -17 15 -18 15 -19
-3 -1 -11 2 -20 8 -20 5 0 9 -5 9 -11 0 -5 -4 -7 -10 -4 -5 3 -10 1 -10 -4 0
-6 5 -11 10 -11 6 0 2 -10 -10 -22 -15 -16 -17 -24 -8 -30 18 -11 65 -10 71 2
3 6 4 5 3 -2 -1 -7 -19 -14 -40 -16 -30 -3 -41 2 -57 22 l-20 26 -386 0 c-338
0 -384 2 -379 15 3 8 1 15 -4 15 -6 0 -10 5 -10 10 0 6 135 10 386 10 l386 0
28 30 c19 21 37 30 57 29 16 -1 21 -3 11 -6z m-4728 -63 c18 -12 2 -12 -25 0
-13 6 -15 9 -5 9 8 0 22 -4 30 -9z m3480 2 c0 -5 -15 -9 -32 -9 -27 -1 -29 1
-13 7 27 11 45 12 45 2z m30 -2 c0 -5 -4 -10 -10 -10 -5 0 -10 5 -10 10 0 6 5
10 10 10 6 0 10 -4 10 -10z m60 -4 c-7 -7 -13 -7 -20 0 -6 6 -3 10 10 10 13 0
16 -4 10 -10z m40 4 c0 -5 -2 -10 -4 -10 -3 0 -8 5 -11 10 -3 6 -1 10 4 10 6
0 11 -4 11 -10z m30 0 c0 -5 -4 -10 -10 -10 -5 0 -10 5 -10 10 0 6 5 10 10 10
6 0 10 -4 10 -10z m40 2 c0 -5 -7 -9 -15 -9 -8 0 -15 4 -15 9 0 4 7 8 15 8 8
0 15 -4 15 -8z m180 -33 c0 -6 -92 -9 -225 -9 -124 1 -225 5 -225 10 0 4 101
8 225 8 132 0 225 -4 225 -9z m10270 7 c0 -2 -7 -7 -16 -10 -8 -3 -12 -2 -9 4
6 10 25 14 25 6z m693 -13 c-7 -2 -21 -2 -30 0 -10 3 -4 5 12 5 17 0 24 -2 18
-5z m-1865 -227 c76 -79 86 -86 121 -86 52 0 79 -25 85 -77 4 -37 1 -46 -21
-63 -57 -45 -128 -11 -140 66 -5 34 -25 59 -155 190 -139 140 -149 153 -137
172 12 20 16 18 88 -48 42 -37 113 -106 159 -154z m1269 189 c0 -8 -4 -12 -9
-9 -5 3 -6 10 -3 15 9 13 12 11 12 -6z m503 1 c0 -3 -4 -8 -10 -11 -5 -3 -10
-1 -10 4 0 6 5 11 10 11 6 0 10 -2 10 -4z m-457 -13 c-7 -2 -19 -2 -25 0 -7 3
-2 5 12 5 14 0 19 -2 13 -5z m87 -8 c0 -2 -9 -3 -19 -2 -11 0 -18 5 -15 9 4 6
34 0 34 -7z m246 2 c4 -4 -42 -6 -102 -5 l-109 2 90 5 c107 7 112 7 121 -2z
m57 6 c-7 -2 -21 -2 -30 0 -10 3 -4 5 12 5 17 0 24 -2 18 -5z m-2043 -283 l0
-60 -65 0 -65 0 0 60 0 60 65 0 65 0 0 -60z m-10880 -140 c0 -5 5 -10 11 -10
5 0 7 5 4 10 -3 6 -1 10 4 10 6 0 11 -7 11 -15 0 -8 -7 -15 -15 -15 -11 0 -15
-11 -15 -43 l0 -43 48 1 c27 0 45 5 42 10 -3 6 -11 9 -17 7 -15 -3 -16 7 -3
28 6 10 10 11 10 3 0 -7 4 -13 10 -13 5 0 7 17 4 40 -4 26 -2 40 5 40 7 0 11
-25 11 -65 l0 -65 -65 0 -65 0 0 65 c0 37 4 65 10 65 6 0 10 -4 10 -10z m1121
-57 c-3 -81 -11 -80 -11 2 0 38 3 65 7 62 3 -4 5 -33 4 -64z m51 55 c-7 -7
-16 -7 -28 0 -14 8 -13 10 10 10 18 0 24 -4 18 -10z m68 -10 c-1 -21 -2 -22
-14 -6 -7 10 -16 15 -19 11 -4 -3 -7 -1 -7 5 0 7 9 12 20 12 14 0 20 -7 20
-22z m327 -15 c-3 -10 -5 -4 -5 12 0 17 2 24 5 18 2 -7 2 -21 0 -30z m1220 25
c-2 -7 -14 -11 -27 -10 -27 4 -40 -12 -40 -50 0 -16 -4 -28 -9 -28 -6 0 -8 83
-2 98 0 1 19 2 42 2 28 0 39 -4 36 -12z m20 -40 c-2 -13 -4 -5 -4 17 -1 22 1
32 4 23 2 -10 2 -28 0 -40z m-2786 -15 c-8 -15 -10 -15 -11 -2 0 17 10 32 18
25 2 -3 -1 -13 -7 -23z m1189 17 c0 -5 -5 -10 -11 -10 -5 0 -7 5 -4 10 3 6 8
10 11 10 2 0 4 -4 4 -10z m1554 -5 c-4 -8 -10 -12 -15 -9 -14 8 -10 24 6 24 9
0 12 -6 9 -15z m15 -32 c-10 -12 -10 -16 2 -23 10 -7 16 -4 21 8 5 14 7 13 7
-5 1 -21 -3 -23 -54 -23 -30 0 -55 4 -55 10 0 5 13 8 30 6 25 -3 30 1 35 25 4
16 11 26 16 23 6 -3 5 -12 -2 -21z m-2729 -2 c0 -15 -5 -18 -22 -13 -19 5 -20
7 -5 10 9 2 17 8 17 13 0 5 2 9 5 9 3 0 5 -9 5 -19z m1180 -1 c8 -5 11 -12 7
-17 -5 -4 -12 -1 -16 6 -5 8 -14 10 -21 6 -9 -5 -11 -4 -6 3 9 14 16 15 36 2z
m-73 -36 c-3 -3 -12 -4 -19 -1 -8 3 -5 6 6 6 11 1 17 -2 13 -5z m71 -1 c-10
-2 -28 -2 -40 0 -13 2 -5 4 17 4 22 1 32 -1 23 -4z m3380 -65 c44 -30 118 -83
356 -256 159 -117 245 -186 242 -197 -1 -5 -86 -73 -188 -150 -102 -77 -246
-186 -321 -242 -74 -57 -137 -103 -141 -103 -3 0 -6 59 -6 130 l0 130 -182 0
-183 0 0 -1047 0 -1048 -235 0 -235 0 -3 720 c-3 835 1 914 50 1018 59 123
177 253 293 322 l60 35 -532 0 c-481 0 -531 2 -537 16 -6 16 3 435 9 442 2 2
339 3 749 2 l746 -1 0 131 c0 71 3 130 6 130 3 0 26 -14 52 -32z m-4759 -52
c-3 -3 -25 -6 -50 -7 -44 -2 -45 -3 -46 -36 0 -25 3 -33 13 -29 8 3 11 0 7 -9
-3 -8 -9 -12 -14 -9 -5 3 -9 1 -9 -3 0 -5 17 -9 38 -10 21 -1 45 -3 53 -5 11
-2 14 9 15 49 0 29 3 56 7 59 4 4 7 -23 7 -59 l0 -67 -65 1 -65 1 0 64 0 64
57 0 c31 0 54 -2 52 -4z m-63 -32 c-4 -12 -2 -15 9 -10 8 3 15 1 15 -4 0 -6
-9 -10 -20 -10 -19 0 -27 20 -13 33 11 12 15 8 9 -9z m47 -34 c3 -11 1 -18 -4
-14 -5 3 -9 12 -9 20 0 20 7 17 13 -6z m-26 -22 c-3 -8 -6 -5 -6 6 -1 11 2 17
5 13 3 -3 4 -12 1 -19z m-567 -73 c14 -19 14 -19 -2 -6 -10 7 -18 18 -18 24 0
6 1 8 3 6 1 -2 9 -13 17 -24z m11777 5 c118 -25 226 -69 322 -134 85 -57 214
-179 256 -244 25 -38 26 -44 13 -60 -8 -9 -74 -88 -146 -174 l-132 -157 -98
97 c-144 145 -249 192 -432 192 -161 0 -281 -50 -396 -165 -160 -160 -234
-367 -234 -650 0 -403 165 -692 456 -797 127 -46 325 -23 462 55 64 36 166
128 207 187 15 22 32 39 36 38 12 -5 289 -311 289 -321 0 -41 -133 -204 -233
-283 -329 -262 -802 -271 -1164 -22 -244 167 -417 451 -495 811 -19 88 -22
132 -22 322 0 202 2 231 27 353 42 199 92 326 191 480 160 250 405 423 673
477 105 21 310 18 420 -5z m-10464 -19 l207 -1 -2 -1277 -3 -1278 -200 0 -200
0 -93 140 c-52 77 -154 227 -228 332 -74 106 -158 228 -186 270 -28 43 -83
123 -123 178 -98 137 -124 175 -257 370 -153 226 -222 324 -228 324 -3 1 -5
-362 -5 -806 l0 -808 -231 -3 -232 -2 -5 27 c-3 14 -3 472 -1 1017 2 545 4
1109 4 1254 l0 262 203 0 202 0 340 -486 c187 -268 433 -620 548 -783 114
-163 210 -304 213 -313 4 -10 9 -18 13 -18 3 0 8 359 9 798 2 438 6 800 8 804
2 3 12 5 22 3 9 -2 110 -4 225 -4z m2225 -228 l2 -233 -552 -2 -553 -3 0 -280
1 -280 229 -2 c127 -1 343 -2 482 -2 l252 -1 3 -197 c2 -109 2 -210 0 -225
l-3 -28 -480 0 c-376 0 -479 -3 -480 -12 0 -7 -1 -145 -2 -305 l-2 -293 573 0
572 0 0 -235 0 -235 -798 0 c-555 0 -801 3 -809 11 -7 7 -9 283 -6 927 2 504
4 1076 4 1269 l-1 353 763 2 c419 2 771 3 782 3 19 0 20 -8 23 -232z m4822 -4
c0 -176 -3 -229 -12 -229 -7 0 -154 0 -325 0 l-313 1 -2 -1048 -3 -1048 -232
-3 -233 -2 -2 1047 -3 1048 -300 -2 c-165 -1 -310 1 -323 4 l-22 5 2 227 3
226 875 5 c481 3 878 4 883 2 4 -2 7 -106 7 -233z m1828 0 l-3 -224 -537 -3
-538 -2 0 -285 0 -285 475 0 475 0 0 -225 0 -225 -475 0 -475 0 0 -305 0 -305
560 0 560 0 -2 -232 -3 -233 -785 0 -785 0 -3 1277 -2 1278 762 2 c420 2 766
0 771 -3 4 -3 6 -106 5 -230z m4359 -1054 l-2 -1270 -230 0 c-177 0 -230 3
-231 13 -1 6 -2 246 -3 532 l-1 520 -457 -2 -458 -3 -3 -533 -2 -532 -228 2
-227 3 -3 1278 -2 1277 230 0 230 0 0 -500 0 -500 460 0 460 0 0 500 0 500
228 2 c143 2 230 -1 234 -7 4 -5 6 -581 5 -1280z m-14496 1228 c13 -16 12 -17
-3 -4 -10 7 -18 15 -18 17 0 8 8 3 21 -13z m-826 -69 c35 -23 45 -62 30 -109
-18 -50 -34 -64 -78 -72 -32 -5 -41 -1 -72 30 -44 44 -48 91 -9 136 21 25 33
31 65 31 22 0 50 -7 64 -16z m63 -49 c-3 -3 -9 2 -12 12 -6 14 -5 15 5 6 7 -7
10 -15 7 -18z m5 -62 c-12 -33 -34 -62 -61 -78 l-27 -16 27 24 c14 14 33 39
42 56 18 33 29 42 19 14z m-229 -18 c3 -8 1 -15 -4 -15 -6 0 -10 7 -10 15 0 8
2 15 4 15 2 0 6 -7 10 -15z m-1429 -5 c4 -6 1 -9 -7 -8 -7 2 -12 -4 -10 -12 3
-12 1 -13 -10 -2 -11 11 -10 14 2 22 19 12 18 12 25 0z m1314 -23 c-2 -1 -13
-9 -24 -17 -19 -14 -19 -14 -6 3 7 9 18 17 24 17 6 0 8 -1 6 -3z m-1375 -32
c3 -8 0 -14 -7 -12 -7 1 -11 -4 -9 -11 1 -8 -2 -11 -8 -7 -5 3 -10 1 -10 -5 0
-6 -7 -18 -15 -26 -24 -24 -18 -6 13 37 15 21 28 39 28 39 1 0 4 -7 8 -15z
m1936 -135 c0 -76 -4 -141 -8 -144 -4 -2 -8 7 -8 22 -1 15 -2 52 -3 82 -3 96
2 189 11 184 4 -3 8 -68 8 -144z m-647 112 c-3 -7 -9 -10 -12 -5 -3 4 -10 11
-15 15 -4 4 1 6 12 5 12 -1 18 -6 15 -15z m317 6 c0 -4 -6 -8 -14 -8 -8 0 -17
4 -20 8 -2 4 4 8 15 8 10 0 19 -4 19 -8z m-350 -14 c0 -2 -7 -4 -15 -4 -8 0
-15 4 -15 10 0 5 7 7 15 4 8 -4 15 -8 15 -10z m-171 -21 c28 -18 84 -19 130
-1 17 6 23 6 16 -1 -12 -12 -96 -32 -107 -25 -4 3 -8 -12 -8 -33 0 -21 -6 -49
-13 -62 -14 -29 -79 -54 -122 -46 -16 2 -24 2 -18 -1 17 -8 -13 -54 -36 -54
-14 0 -14 -2 -1 -10 9 -6 10 -10 3 -10 -7 0 -17 8 -22 18 -14 23 -14 6 -1 -19
6 -11 7 -19 3 -18 -20 3 -27 -2 -13 -11 12 -8 10 -9 -7 -7 -25 3 -44 17 -24
17 7 0 9 4 6 10 -6 10 -3 15 41 65 15 17 21 22 14 13 -13 -18 -6 -38 13 -38 7
0 6 4 -3 10 -13 9 -7 14 12 11 4 0 3 10 -2 23 -5 13 -7 26 -4 29 2 2 -4 10
-13 18 -16 12 -17 12 -8 -1 6 -9 2 -7 -7 3 -20 21 -23 74 -7 97 8 11 9 6 6
-21 -3 -20 -2 -41 2 -48 5 -7 8 1 8 18 0 36 27 79 56 90 30 12 74 5 106 -16z
m111 13 c0 -2 -7 -7 -16 -10 -8 -3 -12 -2 -9 4 6 10 25 14 25 6z m-1313 -81
c0 -8 -4 -12 -9 -9 -5 3 -6 10 -3 15 9 13 12 11 12 -6z m1241 -86 c-10 -7 -9
-9 4 -9 9 0 20 -5 24 -12 5 -7 2 -9 -8 -5 -9 3 -21 0 -27 -6 -7 -7 -12 -7 -11
-2 5 23 -1 25 -30 10 -34 -18 -40 -18 -40 -5 0 6 3 9 8 8 15 -4 48 13 67 36
15 18 21 20 23 8 2 -8 -2 -18 -10 -23z m779 9 c-3 -8 -6 -5 -6 6 -1 11 2 17 5
13 3 -3 4 -12 1 -19z m-297 -21 c0 -7 -4 -6 -10 3 -8 12 -10 12 -10 1 0 -8 -3
-12 -6 -8 -9 9 6 28 17 22 5 -4 9 -12 9 -18z m-586 -25 c3 -5 -1 -9 -9 -9 -8
0 -12 4 -9 9 3 4 7 8 9 8 2 0 6 -4 9 -8z m616 -3 c0 -5 -6 -7 -12 -3 -7 5 -3
-5 10 -20 12 -16 22 -37 22 -47 0 -27 -28 -49 -61 -49 -17 0 -28 -4 -25 -9 8
-13 56 -5 76 14 10 9 21 28 24 41 6 24 9 25 81 23 83 -2 105 -19 25 -19 -33 0
-50 -4 -51 -12 0 -10 -2 -10 -6 0 -2 6 -14 12 -24 12 -11 0 -17 -5 -14 -10 4
-6 11 -8 16 -5 5 4 9 1 9 -4 0 -6 -7 -11 -15 -11 -9 0 -18 -7 -21 -15 -4 -8
-12 -15 -20 -15 -8 0 -14 -5 -14 -11 0 -15 -80 -5 -90 12 -6 9 -22 6 -67 -12
-32 -13 -62 -24 -68 -24 -5 0 -8 -17 -7 -39 3 -26 0 -36 -7 -31 -6 3 -8 12 -5
18 4 8 2 7 -7 -1 -12 -11 -12 -14 1 -23 11 -8 12 -12 3 -15 -7 -3 -9 -12 -6
-20 4 -11 -4 -10 -38 5 -24 11 -46 18 -50 15 -8 -5 -21 29 -24 60 -4 43 59 71
106 46 11 -7 19 -7 19 -1 0 5 -6 11 -12 14 -7 2 -1 6 15 9 15 3 27 1 27 -3 0
-5 -5 -9 -12 -9 -6 0 -9 -2 -6 -5 7 -8 88 27 88 38 0 6 -4 6 -12 0 -21 -16
-48 -23 -48 -13 0 6 6 10 14 10 7 0 19 7 26 15 7 8 16 12 21 9 5 -3 9 0 9 5 0
18 18 12 23 -6 3 -11 5 -7 6 10 0 15 10 36 21 47 11 11 15 20 9 20 -5 0 -7 5
-4 10 8 13 75 13 75 -1z m-465 -38 c-6 -5 -25 10 -25 20 0 5 6 4 14 -3 8 -7
12 -15 11 -17z m2252 7 c-3 -8 -6 -5 -6 6 -1 11 2 17 5 13 3 -3 4 -12 1 -19z
m-3700 -3 c0 -8 -4 -12 -9 -9 -5 3 -6 10 -3 15 9 13 12 11 12 -6z m2153 -27
c0 -4 -9 -8 -20 -8 -11 0 -20 4 -20 9 0 6 9 9 20 8 11 -1 20 -5 20 -9z m57 -3
c0 -8 -4 -12 -9 -9 -5 3 -6 10 -3 15 9 13 12 11 12 -6z m-147 -31 c0 -2 -12
-4 -27 -4 -21 0 -24 3 -14 9 13 8 41 5 41 -5z m-935 -16 c-3 -12 -9 -26 -15
-32 -8 -8 -9 -6 -4 8 5 14 4 17 -5 12 -9 -6 -9 -3 1 13 17 27 28 27 23 -1z
m28 -3 c-3 -9 -8 -14 -10 -11 -3 3 -2 9 2 15 9 16 15 13 8 -4z m427 -20 c-32
-19 -44 -19 -28 0 7 8 22 14 33 14 18 0 17 -1 -5 -14z m-1700 -9 c0 -2 -8 -10
-17 -17 -16 -13 -17 -12 -4 4 13 16 21 21 21 13z m1200 -43 c-10 -13 -16 -32
-13 -41 4 -15 3 -15 -6 -2 -7 9 -11 10 -11 3 0 -6 -9 -11 -19 -10 -11 0 -17 5
-15 9 3 5 9 6 14 3 5 -3 18 8 29 24 23 32 27 46 9 35 -7 -4 -8 -3 -4 4 4 6 13
9 21 6 12 -5 12 -10 -5 -31z m2617 -45 c-3 -7 -5 -2 -5 12 0 14 2 19 5 13 2
-7 2 -19 0 -25z m-1999 -53 c-9 -9 -30 14 -23 25 6 9 10 8 17 -4 6 -10 8 -19
6 -21z m-138 -4 c7 -15 8 -21 1 -17 -15 10 -52 -55 -45 -77 4 -13 0 -20 -16
-24 -17 -5 -19 -8 -8 -15 10 -7 9 -8 -4 -4 -19 6 -25 -9 -8 -17 6 -3 5 -4 -2
-3 -7 2 -12 12 -10 22 2 10 4 27 5 36 1 9 5 14 9 12 4 -3 16 13 27 35 12 22
25 42 30 46 6 3 7 13 4 23 -8 22 1 13 17 -17z m-650 0 c0 -5 -12 -12 -27 -16
-16 -3 -39 -16 -53 -28 -22 -19 -23 -20 -10 -2 17 23 37 37 65 47 11 3 21 6
23 7 1 1 2 -3 2 -8z m60 -5 c0 -2 -7 -6 -15 -10 -8 -3 -15 -1 -15 4 0 6 7 10
15 10 8 0 15 -2 15 -4z m771 -28 c19 -19 24 -30 17 -42 -7 -12 -4 -16 11 -16
11 0 36 -13 54 -30 19 -16 42 -30 51 -30 9 0 13 -6 10 -14 -3 -9 3 -17 16 -21
28 -9 52 -47 48 -76 -5 -33 -18 -53 -50 -73 -23 -15 -30 -16 -61 -3 -73 31
-64 135 13 160 8 2 2 3 -15 1 -16 -3 -33 -10 -38 -17 -5 -7 -6 -4 -2 10 4 17
-7 37 -51 90 -31 37 -51 62 -44 56 20 -18 35 -16 20 2 -7 8 -21 15 -31 15 -11
0 -19 4 -19 9 0 18 46 5 71 -21z m-758 -37 c9 -16 17 -36 17 -45 0 -9 5 -16
10 -16 6 0 10 -5 10 -12 0 -6 -3 -8 -6 -5 -4 4 -22 -7 -41 -23 -37 -33 -58
-36 -98 -18 -27 12 -55 54 -55 82 0 22 48 74 73 78 36 6 72 -11 90 -41z m324
27 c-3 -8 -6 -5 -6 6 -1 11 2 17 5 13 3 -3 4 -12 1 -19z m237 -22 c-9 -15 -19
-24 -22 -22 -2 3 3 17 12 32 10 14 20 23 23 21 2 -3 -3 -17 -13 -31z m3073 2
c-3 -7 -5 -2 -5 12 0 14 2 19 5 13 2 -7 2 -19 0 -25z m-920 -40 c-3 -8 -6 -5
-6 6 -1 11 2 17 5 13 3 -3 4 -12 1 -19z m-2377 -28 c0 -16 -2 -30 -4 -30 -2 0
-6 14 -8 30 -3 17 -1 30 4 30 4 0 8 -13 8 -30z m1413 -50 c-7 -8 -22 24 -16
34 4 5 10 1 13 -10 4 -10 6 -21 3 -24z m2604 34 c-3 -3 -12 -4 -19 -1 -8 3 -5
6 6 6 11 1 17 -2 13 -5z m-4358 -55 c-22 -22 -38 -43 -34 -47 4 -4 10 -1 12 5
10 27 34 -18 67 -125 42 -133 53 -188 37 -178 -9 6 -16 -15 -8 -28 1 -2 -10
-14 -25 -25 -34 -27 -52 -79 -39 -113 7 -19 6 -25 -5 -25 -8 0 -12 2 -10 5 3
2 1 14 -4 26 -10 28 10 90 38 113 22 20 39 63 24 63 -15 0 -23 43 -9 52 8 5 7
8 -5 8 -12 0 -18 8 -18 24 0 14 -4 27 -9 30 -14 9 -20 56 -11 88 5 17 5 26 -1
23 -5 -4 -9 -14 -10 -23 0 -12 -3 -9 -10 7 -6 16 -6 28 1 35 13 13 13 26 -1
26 -5 0 -7 -4 -4 -10 3 -5 2 -10 -3 -10 -5 0 -12 8 -15 18 -2 9 -8 25 -12 36
-6 14 -4 17 6 14 7 -2 27 8 44 24 47 44 51 33 4 -13z m464 26 c-3 -9 -8 -14
-10 -11 -3 3 -2 9 2 15 9 16 15 13 8 -4z m477 5 c0 -5 -2 -10 -4 -10 -3 0 -8
5 -11 10 -3 6 -1 10 4 10 6 0 11 -4 11 -10z m-884 -37 c-7 -7 -26 7 -26 19 0
6 6 6 15 -2 9 -7 13 -15 11 -17z m281 -14 c-15 -23 -16 -20 -10 14 4 19 8 25
13 16 5 -7 3 -20 -3 -30z m638 25 c12 -17 95 -29 95 -13 0 5 12 7 28 3 18 -4
23 -3 14 4 -11 7 -7 11 15 15 18 4 32 1 39 -8 6 -8 13 -14 15 -12 2 1 -2 -4
-10 -10 -8 -7 -29 -14 -45 -15 -61 -3 -71 -6 -104 -20 -18 -8 -29 -18 -25 -23
5 -4 2 -5 -5 0 -8 4 -12 16 -9 26 3 10 -4 28 -14 40 -10 12 -19 24 -19 26 0 9
14 1 25 -13z m-1094 -11 c13 -16 12 -17 -3 -4 -10 7 -18 15 -18 17 0 8 8 3 21
-13z m1347 -1 c2 -7 -1 -12 -8 -12 -6 0 -9 4 -6 9 4 5 1 12 -4 14 -6 3 -5 4 2
3 6 -1 14 -8 16 -14z m-1132 -19 c-7 -7 -26 7 -26 19 0 6 6 6 15 -2 9 -7 13
-15 11 -17z m340 8 c-16 -17 -15 -19 6 -34 18 -12 19 -16 7 -16 -9 -1 -19 6
-23 14 -3 10 -18 15 -43 14 l-38 -1 32 -8 c41 -9 63 -27 78 -64 24 -56 -11
-119 -70 -130 -47 -9 -93 16 -111 60 -19 45 -9 79 32 112 19 15 34 33 34 40 0
9 11 11 39 8 27 -3 43 0 52 10 6 8 14 14 17 14 3 0 -2 -8 -12 -19z m-301 -11
c-6 -10 33 -25 54 -21 7 1 10 -2 6 -8 -5 -10 14 -16 38 -12 4 0 7 -3 7 -9 0
-5 5 -10 10 -10 6 0 10 7 10 15 0 8 9 19 19 25 31 16 31 12 0 -21 -16 -17 -26
-35 -23 -40 3 -5 0 -9 -5 -9 -6 0 -11 3 -11 8 0 4 -30 23 -66 42 -36 19 -61
36 -55 38 6 2 8 9 5 14 -4 7 -2 8 5 4 6 -4 9 -11 6 -16z m1095 -215 c0 -137
-4 -215 -10 -215 -6 0 -10 35 -10 86 0 59 -3 83 -11 78 -6 -3 -3 5 6 20 11 17
13 26 6 26 -7 0 -10 4 -7 8 3 5 6 54 7 110 2 56 6 102 11 102 4 0 8 -97 8
-215z m1275 185 c3 -5 1 -10 -4 -10 -6 0 -11 5 -11 10 0 6 2 10 4 10 3 0 8 -4
11 -10z m23 -45 c-3 -3 -9 2 -12 12 -6 14 -5 15 5 6 7 -7 10 -15 7 -18z m5050
-42 c-10 -2 -26 -2 -35 0 -10 3 -2 5 17 5 19 0 27 -2 18 -5z m-4281 -50 c-3
-10 -5 -4 -5 12 0 17 2 24 5 18 2 -7 2 -21 0 -30z m-3029 -8 c-3 -3 -9 2 -12
12 -6 14 -5 15 5 6 7 -7 10 -15 7 -18z m599 -22 c-3 -10 -5 -4 -5 12 0 17 2
24 5 18 2 -7 2 -21 0 -30z m-577 -14 c0 -6 -4 -7 -10 -4 -5 3 -10 11 -10 16 0
6 5 7 10 4 6 -3 10 -11 10 -16z m188 -24 c-3 -3 -13 1 -21 10 -10 9 -18 11
-22 5 -3 -5 -11 -10 -17 -10 -6 0 -3 9 6 19 18 20 18 20 39 1 11 -11 18 -22
15 -25z m92 -23 c2 -2 -2 -7 -9 -12 -12 -7 -12 -11 1 -24 9 -8 18 -12 22 -9 3
4 6 1 6 -5 0 -19 -13 -14 -55 24 -22 19 -35 33 -28 30 21 -11 23 10 2 24 -10
8 -19 18 -19 23 0 4 17 -4 38 -20 20 -15 39 -29 42 -31z m-230 27 c12 -8 10
-9 -7 -4 -12 3 -24 1 -28 -5 -3 -5 -11 -10 -16 -10 -13 0 13 29 26 29 6 1 17
-4 25 -10z m53 -6 c-7 -2 -19 -2 -25 0 -7 3 -2 5 12 5 14 0 19 -2 13 -5z
m7084 -9 c-3 -3 -12 -4 -19 -1 -8 3 -5 6 6 6 11 1 17 -2 13 -5z m106 -1 c-7
-2 -21 -2 -30 0 -10 3 -4 5 12 5 17 0 24 -2 18 -5z m-5618 -34 c0 -15 42 -64
55 -64 5 0 14 -5 21 -12 9 -9 6 -11 -12 -7 -14 3 -20 2 -13 -3 5 -4 21 -25 33
-46 16 -26 26 -35 31 -27 5 8 10 8 14 2 3 -5 -2 -13 -11 -16 -16 -7 -22 -1
-45 38 -6 11 -30 46 -54 79 -45 60 -54 82 -31 75 6 -3 12 -11 12 -19z m-1085
-30 c-8 -15 -9 -19 -1 -15 7 4 11 -1 11 -13 0 -12 5 -21 10 -21 6 0 10 -15 10
-32 0 -28 6 -37 39 -55 45 -26 76 -82 66 -122 -13 -53 -12 -89 2 -84 10 4 13
-1 9 -19 -2 -14 0 -31 5 -39 7 -10 8 -6 5 14 -3 15 0 27 6 27 5 0 8 -7 5 -15
-4 -8 -2 -17 3 -20 4 -3 10 -1 12 5 1 5 26 -11 54 -38 27 -26 43 -41 34 -34
-26 19 -35 14 -15 -8 18 -20 18 -21 -1 -14 -15 6 -12 0 11 -27 41 -45 8 -20
-99 78 -65 59 -93 79 -102 72 -17 -14 -102 -8 -122 8 -15 12 -14 13 6 3 16 -8
22 -8 22 1 0 8 4 9 13 0 14 -11 46 -8 74 8 13 7 7 8 -23 4 -53 -7 -100 19
-116 64 -6 17 -15 30 -19 27 -5 -2 -5 -12 -2 -22 5 -14 3 -14 -9 2 -9 11 -21
20 -29 22 -72 11 -94 15 -98 20 -3 4 13 5 36 2 29 -2 44 1 48 9 2 7 8 13 12
12 52 -9 41 30 -23 80 -30 24 -52 46 -49 49 3 4 10 0 14 -7 5 -7 13 -11 19 -7
12 7 34 -18 24 -29 -4 -4 0 -6 8 -3 8 2 23 -3 34 -13 13 -13 27 -16 49 -12 21
4 28 3 23 -5 -5 -8 -1 -10 10 -5 11 4 13 8 6 11 -7 2 -12 8 -12 13 0 6 5 7 10
4 6 -4 10 24 10 77 0 57 3 78 10 68 8 -12 10 -12 11 5 0 11 3 15 5 8 3 -7 0
-22 -6 -34z m-630 6 c-7 -9 -15 -13 -17 -11 -6 6 20 36 26 30 2 -2 -2 -10 -9
-19z m1758 0 c6 -14 8 -25 3 -25 -4 0 -13 11 -19 25 -6 14 -8 25 -3 25 4 0 13
-11 19 -25z m1289 -27 c-2 -13 -4 -5 -4 17 -1 22 1 32 4 23 2 -10 2 -28 0 -40z
m-2676 25 c13 -16 12 -17 -3 -4 -10 7 -18 15 -18 17 0 8 8 3 21 -13z m40 -30
c13 -16 12 -17 -3 -4 -10 7 -18 15 -18 17 0 8 8 3 21 -13z m2088 -9 c-6 -8
-15 -12 -18 -8 -3 4 0 9 7 11 6 3 9 10 6 15 -4 7 -2 8 5 4 9 -6 9 -11 0 -22z
m-2649 6 c0 -5 -7 -10 -16 -10 -8 0 -12 5 -9 10 3 6 10 10 16 10 5 0 9 -4 9
-10z m540 -4 c0 -3 -4 -8 -10 -11 -5 -3 -10 -1 -10 4 0 6 5 11 10 11 6 0 10
-2 10 -4z m60 -21 c11 -13 10 -14 -4 -9 -9 3 -16 10 -16 15 0 13 6 11 20 -6z
m-547 -8 c38 -16 58 -38 60 -66 1 -21 17 -30 17 -10 0 6 9 8 21 4 30 -10 50
-13 79 -14 20 -1 22 -3 10 -11 -8 -5 -24 -7 -35 -4 -20 5 -20 5 0 -11 18 -14
16 -15 -28 -14 -32 2 -51 8 -57 18 -8 13 -9 12 -10 -6 0 -25 -53 -73 -81 -73
-11 0 -33 7 -49 15 -66 34 -79 102 -30 154 33 34 54 38 103 18z m67 9 c0 -2 3
-13 6 -23 5 -16 4 -16 -8 -2 -7 9 -20 18 -28 22 -10 4 -8 6 8 6 12 1 22 -1 22
-3z m440 0 c0 -3 -4 -8 -10 -11 -5 -3 -10 -1 -10 4 0 6 5 11 10 11 6 0 10 -2
10 -4z m6928 -63 l-3 -68 -67 -1 -68 -1 0 68 0 69 70 0 71 0 -3 -67z m-5512
20 c-7 -7 -26 7 -26 19 0 6 6 6 15 -2 9 -7 13 -15 11 -17z m653 -7 c-3 -3 -11
5 -18 17 -13 21 -12 21 5 5 10 -10 16 -20 13 -22z m908 -8 c-3 -7 -5 -2 -5 12
0 14 2 19 5 13 2 -7 2 -19 0 -25z m-2841 -26 c-6 -5 -36 23 -36 34 0 4 9 -1
20 -11 11 -10 18 -20 16 -23z m432 -72 c-1 -44 -4 -77 -7 -74 -11 11 -12 154
-1 154 7 0 10 -29 8 -80z m2409 48 c-3 -8 -6 -5 -6 6 -1 11 2 17 5 13 3 -3 4
-12 1 -19z m-3175 -7 c4 -3 -14 -4 -40 -3 -26 2 -51 7 -55 12 -10 9 85 1 95
-9z m2835 -13 c-3 -8 -6 -5 -6 6 -1 11 2 17 5 13 3 -3 4 -12 1 -19z m-2694 -7
c5 -5 -15 -4 -45 1 -81 13 -89 18 -23 12 33 -2 64 -9 68 -13z m-164 -7 c8 -7
-64 -2 -89 6 -17 6 -7 7 30 4 30 -3 57 -8 59 -10z m110 -10 c3 -3 -18 -4 -47
-3 -28 2 -52 6 -52 10 0 8 91 1 99 -7z m98 10 c-3 -3 -12 -4 -19 -1 -8 3 -5 6
6 6 11 1 17 -2 13 -5z m28 -4 c3 -5 1 -10 -4 -10 -6 0 -11 5 -11 10 0 6 2 10
4 10 3 0 8 -4 11 -10z m-45 -22 c0 -6 -7 -7 -16 -4 -9 3 -24 6 -35 6 -10 0
-19 4 -19 8 0 4 16 6 35 4 19 -2 35 -9 35 -14z m-609 -5 c13 -16 12 -17 -3 -4
-17 13 -22 21 -14 21 2 0 10 -8 17 -17z m2124 -12 c-6 -5 -25 10 -25 20 0 5 6
4 14 -3 8 -7 12 -15 11 -17z m-1935 5 c0 -2 -8 -10 -17 -17 -16 -13 -17 -12
-4 4 13 16 21 21 21 13z m3427 -28 c-3 -7 -5 -2 -5 12 0 14 2 19 5 13 2 -7 2
-19 0 -25z m-2440 -30 c-3 -8 -6 -5 -6 6 -1 11 2 17 5 13 3 -3 4 -12 1 -19z
m-398 -21 c12 -15 12 -17 -3 -11 -9 3 -16 13 -16 22 0 8 1 13 3 11 1 -2 9 -12
16 -22z m2498 -19 c-3 -7 -5 -2 -5 12 0 14 2 19 5 13 2 -7 2 -19 0 -25z
m-2070 -50 c-3 -7 -5 -2 -5 12 0 14 2 19 5 13 2 -7 2 -19 0 -25z m2073 -23 c0
-5 -5 -3 -10 5 -5 8 -10 20 -10 25 0 6 5 3 10 -5 5 -8 10 -19 10 -25z m-2103
-7 c-3 -7 -5 -2 -5 12 0 14 2 19 5 13 2 -7 2 -19 0 -25z m570 0 c-3 -7 -5 -2
-5 12 0 14 2 19 5 13 2 -7 2 -19 0 -25z m-540 -10 c-3 -8 -6 -5 -6 6 -1 11 2
17 5 13 3 -3 4 -12 1 -19z m2073 -28 c0 -5 -2 -10 -4 -10 -3 0 -8 5 -11 10 -3
6 -1 10 4 10 6 0 11 -4 11 -10z m-2895 -26 c-27 -13 -59 -34 -70 -46 l-20 -21
36 21 c53 32 59 27 11 -9 -23 -17 -46 -28 -52 -24 -5 3 -8 0 -5 -7 7 -18 -41
-73 -48 -56 -3 7 -6 2 -6 -12 -1 -17 -4 -21 -9 -12 -6 9 -15 0 -28 -30 -10
-23 -19 -50 -19 -59 0 -10 -4 -21 -8 -26 -10 -9 -4 35 12 85 24 79 97 157 185
198 67 31 85 30 21 -2z m1905 -5 c0 -4 8 -5 17 -2 12 5 15 2 10 -10 -4 -11 -1
-17 7 -17 14 0 66 -61 66 -77 0 -4 -5 -1 -10 7 -5 8 -10 10 -10 4 0 -6 7 -17
15 -24 8 -7 12 -16 9 -21 -3 -5 0 -9 5 -9 6 0 11 5 11 12 0 6 9 1 20 -12 11
-13 18 -26 15 -28 -3 -3 -12 3 -20 14 -21 27 -18 10 6 -39 l20 -42 -20 25
c-12 14 -38 50 -58 80 -21 30 -41 57 -45 58 -5 2 -8 10 -8 17 0 7 -3 15 -7 17
-5 2 -18 18 -31 35 -15 23 -18 31 -7 27 8 -4 15 -10 15 -15z m986 -26 c-11
-11 -17 4 -9 23 7 18 8 18 11 1 2 -10 1 -21 -2 -24z m-2651 -27 c121 -56 172
-167 163 -355 -4 -86 -9 -104 -38 -160 -54 -101 -136 -151 -249 -151 -102 0
-200 64 -249 162 -47 96 -54 266 -14 359 22 51 76 121 86 112 3 -3 6 -2 6 4 0
11 61 41 111 54 49 12 127 1 184 -25z m112 -3 c36 -35 102 -143 87 -143 -4 0
-1 -7 6 -15 8 -10 9 -15 1 -15 -6 0 -14 12 -17 28 -12 48 -34 82 -86 133 -58
57 -50 67 9 12z m473 -3 c0 -5 -4 -10 -10 -10 -5 0 -10 5 -10 10 0 6 5 10 10
10 6 0 10 -4 10 -10z m2067 -77 c-2 -16 -4 -5 -4 22 0 28 2 40 4 28 2 -13 2
-35 0 -50z m920 35 c-3 -7 -5 -2 -5 12 0 14 2 19 5 13 2 -7 2 -19 0 -25z
m-2988 -209 c-1 -120 -4 -219 -8 -219 -4 0 -8 17 -9 37 -2 21 -8 41 -15 45 -9
6 -9 8 1 8 6 0 12 12 12 26 0 14 -4 23 -10 19 -6 -4 -10 33 -10 104 0 82 3
111 13 111 8 0 8 3 -2 9 -9 6 -11 15 -6 27 9 20 12 30 14 52 0 7 6 10 11 7 7
-5 10 -82 9 -226z m15995 181 c-10 -16 -20 -28 -22 -26 -4 5 28 56 35 56 2 0
-4 -13 -13 -30z m-15086 -25 c-1 -20 -4 -31 -8 -25 -7 11 -2 60 6 60 2 0 3
-16 2 -35z m15222 -6 c0 -11 -5 -19 -11 -19 -5 0 -7 4 -4 10 3 5 0 20 -6 32
-11 21 -11 22 4 9 10 -7 17 -22 17 -32z m-14063 -46 c-3 -10 -5 -4 -5 12 0 17
2 24 5 18 2 -7 2 -21 0 -30z m13923 -13 c5 0 10 -7 13 -14 10 -26 -19 -7 -32
20 -14 32 -13 47 1 17 6 -13 14 -23 18 -23z m141 12 c-5 -9 -19 -26 -31 -37
-22 -19 -22 -19 1 17 24 37 48 53 30 20z m-15221 -3 c0 -5 -22 -9 -50 -9 -65
0 -65 14 0 17 28 1 50 -3 50 -8z m15180 1 c0 -5 -5 -10 -11 -10 -5 0 -7 5 -4
10 3 6 8 10 11 10 2 0 4 -4 4 -10z m-14809 -37 c13 -16 12 -17 -3 -4 -10 7
-18 15 -18 17 0 8 8 3 21 -13z m789 -118 c0 -74 -3 -135 -7 -135 -5 0 -7 61
-5 135 2 74 5 135 8 135 2 0 4 -61 4 -135z m-800 80 c0 -5 -5 -3 -10 5 -5 8
-10 20 -10 25 0 6 5 3 10 -5 5 -8 10 -19 10 -25z m-2317 -81 c-2 -84 21 -165
54 -189 10 -7 15 -17 10 -21 -4 -4 -7 -2 -7 4 0 7 -4 12 -9 12 -5 0 -7 -9 -4
-20 3 -11 14 -20 24 -20 10 0 21 -5 25 -12 5 -7 2 -9 -9 -5 -11 4 -14 2 -10
-8 3 -8 8 -13 13 -10 4 2 19 -8 33 -23 24 -25 25 -28 8 -29 -28 -2 -84 68 -93
117 -2 8 -8 20 -15 27 -31 34 -47 253 -19 253 1 0 0 -34 -1 -76z m1902 26 c-3
-5 -12 -7 -20 -3 -21 7 -19 13 6 13 11 0 18 -4 14 -10z m55 -50 l0 -60 -65 0
c-36 0 -65 4 -65 10 0 5 7 7 15 4 10 -4 15 0 15 12 1 17 2 17 10 2 12 -19 38
-18 51 3 6 10 9 10 9 2 0 -7 4 -13 10 -13 5 0 7 7 4 15 -7 17 -34 21 -34 4 0
-6 -6 -9 -12 -6 -7 2 -12 11 -10 21 3 19 -14 22 -21 4 -3 -7 -6 1 -6 17 0 20
2 26 8 16 7 -10 13 -11 30 -2 12 7 26 9 31 6 5 -3 11 -1 14 4 4 5 -2 12 -11
14 -14 4 -13 5 5 6 20 1 22 -3 22 -59z m-1263 -12 c-3 -7 -5 -2 -5 12 0 14 2
19 5 13 2 -7 2 -19 0 -25z m1146 12 c3 -11 1 -23 -4 -26 -5 -3 -9 6 -9 20 0
31 6 34 13 6z m557 16 c0 -3 -4 -8 -10 -11 -5 -3 -10 -1 -10 4 0 6 5 11 10 11
6 0 10 -2 10 -4z m-2365 -16 c3 -5 1 -10 -4 -10 -6 0 -11 5 -11 10 0 6 2 10 4
10 3 0 8 -4 11 -10z m2397 -40 c5 0 6 -4 3 -10 -6 -10 9 -15 30 -10 6 1 5 -4
-2 -11 -9 -9 -7 -16 8 -33 17 -18 21 -19 29 -6 10 16 13 10 13 -32 0 -10 4
-18 8 -18 5 0 9 6 9 12 0 15 64 -72 91 -124 14 -27 15 -38 6 -41 -9 -4 -8 -8
3 -16 8 -6 10 -11 4 -11 -16 0 -46 36 -98 118 -26 40 -44 77 -40 84 4 6 3 8
-4 4 -11 -6 -93 107 -91 128 0 6 5 1 11 -11 6 -13 15 -23 20 -23z m12 24 c3
-8 2 -12 -4 -9 -6 3 -10 10 -10 16 0 14 7 11 14 -7z m-1749 -24 c-3 -5 -12
-10 -18 -10 -7 0 -6 4 3 10 19 12 23 12 15 0z m-668 -22 c-3 -8 -6 -5 -6 6 -1
11 2 17 5 13 3 -3 4 -12 1 -19z m663 -10 c0 -26 -30 -111 -51 -144 -31 -50
-33 -41 -4 16 14 28 28 70 32 95 3 25 10 45 14 45 5 0 9 -6 9 -12z m-57 -68
c-3 -12 -8 -19 -11 -16 -5 6 5 36 12 36 2 0 2 -9 -1 -20z m417 -40 c0 -5 -5
-10 -11 -10 -5 0 -7 5 -4 10 3 6 8 10 11 10 2 0 4 -4 4 -10z m-463 -54 c0 -8
-3 -15 -6 -14 -18 2 -24 -3 -14 -10 9 -5 3 -13 -20 -26 l-32 -17 24 20 c13 12
20 21 16 21 -5 0 0 9 10 20 22 24 22 24 22 6z m2873 -16 c0 -5 -4 -10 -10 -10
-5 0 -10 5 -10 10 0 6 5 10 10 10 6 0 10 -4 10 -10z m-2416 -15 c-4 -8 -8 -15
-10 -15 -2 0 -4 7 -4 15 0 8 4 15 10 15 5 0 7 -7 4 -15z m556 0 c0 -8 -4 -15
-10 -15 -5 0 -7 7 -4 15 4 8 8 15 10 15 2 0 4 -7 4 -15z m-1015 -25 c-16 -16
-30 -28 -33 -26 -5 6 41 55 52 55 6 1 -3 -12 -19 -29z m1015 -4 c0 -3 -4 -8
-10 -11 -5 -3 -10 -1 -10 4 0 6 5 11 10 11 6 0 10 -2 10 -4z m-1415 -55 c-6
-5 -25 10 -25 20 0 5 6 4 14 -3 8 -7 12 -15 11 -17z m17130 19 c-3 -5 -1 -10
6 -10 7 0 10 -3 6 -6 -9 -9 -28 6 -22 17 4 5 8 9 11 9 3 0 2 -4 -1 -10z
m-15780 -20 c-3 -5 -14 -10 -23 -9 -14 0 -13 2 3 9 27 11 27 11 20 0z m2204
-6 c2 -2 -44 -4 -103 -4 -59 0 -105 3 -102 8 4 7 197 4 205 -4z m-3509 -4 c8
-5 11 -10 5 -10 -5 0 -17 5 -25 10 -8 5 -10 10 -5 10 6 0 17 -5 25 -10z m938
3 c-21 -2 -55 -2 -75 0 -21 2 -4 4 37 4 41 0 58 -2 38 -4z m255 0 c-40 -2
-106 -2 -145 0 -40 1 -8 3 72 3 80 0 112 -2 73 -3z m2384 1 c-3 -3 -12 -4 -19
-1 -8 3 -5 6 6 6 11 1 17 -2 13 -5z m-3542 -14 c3 -5 1 -10 -4 -10 -6 0 -11 5
-11 10 0 6 2 10 4 10 3 0 8 -4 11 -10z m17010 0 c-3 -5 -1 -10 6 -10 7 0 10
-3 6 -6 -9 -9 -28 6 -22 17 4 5 8 9 11 9 3 0 2 -4 -1 -10z m-18732 -7 c-29 -2
-78 -2 -110 0 -32 2 -8 3 52 3 61 0 87 -1 58 -3z m-178 -23 c-3 -5 -10 -10
-16 -10 -5 0 -9 5 -9 10 0 6 7 10 16 10 8 0 12 -4 9 -10z m284 -6 c3 -3 -56
-4 -132 -3 -75 1 -137 6 -137 11 0 9 260 2 269 -8z m131 5 c0 -5 -11 -9 -25
-9 -33 0 -33 15 0 16 14 1 25 -2 25 -7z m66 -2 c4 -4 -7 -7 -25 -7 -18 0 -30
4 -27 8 6 10 42 9 52 -1z m70 0 c3 -3 -8 -5 -25 -5 -17 1 -31 4 -31 9 0 8 47
5 56 -4z m18334 9 c0 -2 -8 -10 -17 -17 -16 -13 -17 -12 -4 4 13 16 21 21 21
13z m-18542 -13 c-10 -2 -26 -2 -35 0 -10 3 -2 5 17 5 19 0 27 -2 18 -5z
m18422 -137 c0 -2 -8 -10 -17 -17 -16 -13 -17 -12 -4 4 13 16 21 21 21 13z
m-17949 -43 c13 -16 12 -17 -3 -4 -10 7 -18 15 -18 17 0 8 8 3 21 -13z m17869
-7 c0 -2 -8 -10 -17 -17 -16 -13 -17 -12 -4 4 13 16 21 21 21 13z m-14679 -46
c1 -16 2 -38 3 -47 1 -16 -9 -18 -69 -18 l-70 0 -1 48 0 47 68 0 68 0 1 -30z
m14620 -14 c-12 -13 -19 -26 -14 -28 4 -3 3 -4 -3 -2 -6 1 -18 -3 -25 -9 -8
-7 2 5 20 26 19 20 37 37 40 37 2 0 -6 -11 -18 -24z m-14134 -68 c-3 -8 -6 -5
-6 6 -1 11 2 17 5 13 3 -3 4 -12 1 -19z m14113 18 c0 -2 -8 -10 -17 -17 -16
-13 -17 -12 -4 4 13 16 21 21 21 13z m-60 -60 c0 -2 -12 -13 -27 -27 -20 -17
-23 -18 -10 -3 22 27 22 40 0 23 -16 -13 -17 -12 -5 3 8 9 20 14 28 11 8 -3
14 -6 14 -7z m-17545 -36 c10 -11 16 -20 13 -20 -3 0 -13 9 -23 20 -10 11 -16
20 -13 20 3 0 13 -9 23 -20z m17465 -15 c-15 -16 -19 -25 -10 -25 9 0 5 -9
-10 -25 -16 -17 -27 -22 -34 -15 -7 7 3 23 29 50 42 43 64 56 25 15z m-67 -79
c4 -10 1 -13 -8 -9 -8 3 -12 9 -9 14 7 12 11 11 17 -5z m-17257 -48 l29 -33
-32 29 c-18 17 -33 31 -33 33 0 8 8 1 36 -29z m17244 15 c0 -3 -6 -3 -14 0 -7
3 -20 0 -27 -6 -11 -10 -11 -9 0 5 11 15 41 15 41 1z m-12610 -13 c0 -5 -5
-10 -11 -10 -5 0 -7 5 -4 10 3 6 8 10 11 10 2 0 4 -4 4 -10z m12520 -43 c0 -2
-10 -12 -22 -23 l-23 -19 19 23 c18 21 26 27 26 19z m-12533 -29 c-3 -8 -6 -5
-6 6 -1 11 2 17 5 13 3 -3 4 -12 1 -19z m9891 -47 c6 -84 0 -91 -72 -91 -58 0
-64 2 -70 23 -8 31 -8 102 1 111 4 4 37 6 73 4 l65 -3 3 -44z m1852 25 c0 -2
-7 -7 -16 -10 -8 -3 -12 -2 -9 4 6 10 25 14 25 6z m125 -46 c3 -5 1 -10 -4
-10 -6 0 -11 5 -11 10 0 6 2 10 4 10 3 0 8 -4 11 -10z m-14226 -85 c34 -17 55
-62 45 -99 -16 -63 -103 -88 -150 -41 -33 33 -34 33 -903 34 -398 1 -722 3
-720 6 3 2 65 5 139 6 74 1 144 5 155 10 19 7 19 8 1 8 -11 1 -16 4 -13 8 4 3
17 1 30 -5 30 -14 77 -21 77 -11 0 5 9 9 21 9 11 0 17 -4 14 -10 -3 -6 1 -7
10 -4 12 5 13 9 4 20 -10 12 34 14 287 14 165 0 427 3 584 7 l285 6 27 29 c29
32 64 36 107 13z m14106 -5 c3 -6 -1 -7 -9 -4 -18 7 -21 14 -7 14 6 0 13 -4
16 -10z m-15928 -96 c-3 -3 -12 -4 -19 -1 -8 3 -5 6 6 6 11 1 17 -2 13 -5z
m15130 -390 c-3 -3 -12 -4 -19 -1 -8 3 -5 6 6 6 11 1 17 -2 13 -5z m-2267
-765 l0 -31 -67 8 c-38 4 -73 7 -80 7 -7 0 -10 4 -7 8 2 4 0 10 -6 14 -25 15
7 25 81 25 l79 0 0 -31z m-854 -707 c1 -9 4 -138 9 -287 5 -191 12 -280 21
-304 11 -27 12 -37 2 -49 -8 -10 -9 -13 -2 -9 8 5 12 -17 12 -78 0 -48 -4 -87
-10 -91 -7 -4 -7 -9 1 -13 7 -5 6 -14 -3 -32 -16 -31 -21 -127 -20 -369 0
-181 1 -186 27 -235 34 -64 34 -90 -2 -126 -82 -82 -191 35 -118 127 21 27 22
39 23 189 1 88 -3 216 -8 285 -5 69 -9 133 -9 142 0 10 -4 20 -8 23 -9 5 -6
107 9 270 5 61 12 187 16 280 4 94 8 177 10 185 1 8 3 27 3 42 1 20 5 26 16
22 10 -4 15 0 15 11 0 9 -4 14 -8 11 -5 -3 -9 1 -9 7 0 20 33 18 33 -1z
m-8199 -294 c-2 -13 -4 -3 -4 22 0 25 2 35 4 23 2 -13 2 -33 0 -45z m0 -60
c-3 -7 -5 -2 -5 12 0 14 2 19 5 13 2 -7 2 -19 0 -25z m1195 -677 c-5 -14 -3
-14 11 -2 16 12 17 4 17 -115 0 -125 3 -206 16 -444 3 -63 6 -125 7 -137 1
-13 5 -23 10 -23 12 0 -1 -169 -14 -180 -5 -4 -23 -582 -21 -652 0 -10 -3 -18
-7 -18 -4 0 -13 -10 -19 -22 -7 -13 -11 -16 -11 -8 3 42 -5 49 -11 10 -6 -36
-7 -25 -9 55 -1 55 -4 116 -6 135 -2 19 -6 177 -10 350 -4 173 -7 320 -7 325
-1 16 12 395 18 562 4 98 10 151 16 147 6 -4 5 4 -2 16 -8 15 -8 20 -1 16 6
-4 11 0 11 11 0 14 2 15 9 4 5 -8 6 -21 3 -30z m-3773 -323 c1 -5 -2 -7 -6 -7
-20 3 -26 -2 -13 -11 9 -6 10 -10 3 -10 -17 0 -27 21 -14 30 7 4 11 11 10 16
-4 21 3 27 11 9 5 -11 9 -23 9 -27z m21 38 c0 -3 -4 -8 -10 -11 -5 -3 -10 -1
-10 4 0 6 5 11 10 11 6 0 10 -2 10 -4z m-64 -57 c12 -25 10 -27 -543 -585
-326 -328 -1007 -996 -1022 -1002 -4 -1 -7 14 -8 34 -1 34 17 53 407 442 825
822 1139 1132 1148 1132 5 0 13 -10 18 -21z m8668 -294 c7 -294 14 -409 26
-469 9 -43 7 -328 -3 -365 -9 -35 -27 -412 -27 -578 0 -112 -3 -145 -15 -157
-8 -8 -15 -20 -15 -26 0 -7 -5 -6 -14 2 -10 9 -11 17 -4 26 7 8 7 12 0 12 -7
0 -11 84 -12 258 0 143 -2 268 -4 278 -4 20 -20 428 -19 479 0 17 3 50 7 75 4
25 11 185 16 355 4 171 10 321 13 335 2 14 5 29 6 33 0 5 5 6 11 2 5 -3 6 -13
3 -23 -3 -9 -3 -14 1 -10 6 5 9 14 15 47 1 2 3 2 5 0 2 -2 7 -125 10 -274z
m-10621 -322 c-6 -15 -4 -16 9 -6 13 11 15 8 16 -23 1 -22 -4 -37 -13 -41 -21
-7 -67 5 -60 17 3 5 13 6 21 3 11 -4 15 0 14 13 -4 34 0 54 10 54 5 0 6 -8 3
-17z m-13 -124 c0 -6 9 -8 20 -4 12 4 20 2 20 -4 0 -6 -13 -10 -28 -9 -16 1
-29 8 -29 15 0 7 4 13 9 13 4 0 8 -5 8 -11z m-745 -407 c2 -34 0 -62 -5 -62
-13 0 -15 15 -12 76 5 70 11 65 17 -14z m18749 -91 c19 -63 86 -174 139 -229
60 -63 233 -162 281 -162 9 0 16 -8 16 -17 0 -13 -17 -23 -61 -37 -66 -21
-154 -74 -218 -131 -67 -61 -171 -236 -171 -289 0 -9 -8 -16 -18 -16 -12 0
-22 17 -37 62 -22 68 -73 154 -130 217 -61 67 -236 171 -289 171 -9 0 -16 8
-16 18 0 12 17 22 60 36 63 19 174 87 228 139 63 60 162 233 162 281 0 9 8 16
18 16 14 0 23 -15 36 -59z m-12194 -25 c0 -3 -4 -8 -10 -11 -5 -3 -10 -1 -10
4 0 6 5 11 10 11 6 0 10 -2 10 -4z m-6536 -48 c3 -17 6 -66 6 -109 l0 -79 -70
0 -70 0 0 104 0 105 38 3 c95 8 89 9 96 -24z m1113 -277 c3 -21 -92 -116 -107
-106 -6 4 -10 3 -9 -2 4 -23 -2 -35 -16 -30 -8 4 -17 1 -21 -5 -5 -7 -2 -8 7
-3 8 4 1 -6 -15 -23 -34 -37 -38 -39 -29 -14 6 15 5 16 -12 2 -17 -14 -17 -14
-4 8 8 12 20 22 27 22 9 0 12 6 8 15 -3 9 0 15 10 15 9 0 18 9 21 20 3 11 11
20 18 20 7 0 22 12 32 26 11 15 30 27 43 28 13 0 25 8 27 16 4 13 3 13 -6 0
-9 -13 -12 -13 -23 -1 -9 10 -9 12 -1 7 7 -4 18 2 25 13 13 22 20 20 25 -8z
m-1148 -58 c-2 -44 -2 -45 -8 -14 -6 35 -32 53 -60 43 -9 -3 -12 -1 -7 6 4 7
23 12 42 12 l34 0 -1 -47z"/>
<path d="M11499 16553 c-13 -16 -12 -17 4 -4 16 13 21 21 13 21 -2 0 -10 -8
-17 -17z"/>
<path d="M13320 17225 c-7 -8 -9 -15 -6 -15 4 0 14 7 22 15 9 8 11 15 6 15 -5
0 -15 -7 -22 -15z"/>
<path d="M13290 17189 c0 -5 5 -7 10 -4 6 3 10 8 10 11 0 2 -4 4 -10 4 -5 0
-10 -5 -10 -11z"/>
<path d="M20060 18142 c0 -16 9 -39 20 -52 11 -13 20 -27 20 -32 0 -4 11 -8
25 -8 24 0 25 3 25 60 l0 60 -45 0 c-43 0 -45 -1 -45 -28z m80 -38 c0 -8 -4
-14 -10 -14 -5 0 -10 -8 -10 -17 0 -12 -3 -14 -10 -7 -8 8 -8 19 0 38 10 27
30 28 30 0z"/>
<path d="M20030 18000 c0 -5 7 -7 15 -4 8 4 15 8 15 10 0 2 -7 4 -15 4 -8 0
-15 -4 -15 -10z"/>
<path d="M20116 17855 c4 -9 0 -15 -9 -15 -8 0 -17 6 -20 13 -2 6 -7 9 -11 5
-10 -9 12 -48 27 -48 7 0 6 4 -3 10 -12 8 -11 10 6 10 12 0 25 7 28 16 8 22 8
24 -9 24 -9 0 -12 -6 -9 -15z"/>
<path d="M19894 17897 c-3 -13 -4 -41 -2 -63 3 -36 6 -39 36 -42 l32 -3 0 65
0 66 -30 0 c-23 0 -31 -5 -36 -23z"/>
<path d="M5445 15882 c3 -7 5 -16 5 -19 0 -2 7 2 15 11 20 20 19 25 -5 23 -13
-1 -19 -6 -15 -15z"/>
<path d="M5497 15869 c6 -23 9 -24 16 -5 3 8 0 17 -7 19 -10 4 -12 -1 -9 -14z"/>
<path d="M4966 14954 c-30 -30 -13 -74 29 -74 44 0 63 60 26 80 -27 14 -37 13
-55 -6z"/>
<path d="M7176 14523 c-4 -9 -4 -18 -1 -21 3 -3 5 0 5 7 0 9 5 9 20 1 25 -13
25 -9 1 12 -18 15 -20 15 -25 1z"/>
<path d="M10257 14950 c-8 -11 -17 -17 -20 -13 -15 14 -5 -13 11 -33 23 -29
44 -34 66 -18 11 7 22 11 26 9 4 -2 5 8 2 23 -8 50 -59 69 -85 32z"/>
<path d="M1770 13870 c-8 -5 -11 -10 -6 -10 5 0 1 -10 -10 -21 -19 -22 -19
-22 2 -11 12 6 24 21 27 32 3 11 4 20 4 20 -1 0 -9 -5 -17 -10z"/>
<path d="M1675 13610 c-4 -12 -5 -24 -2 -27 3 -2 8 5 12 17 4 12 5 24 2 27 -3
2 -8 -5 -12 -17z"/>
<path d="M4373 14378 c-8 -10 -3 -19 17 -35 26 -21 27 -21 25 -2 -1 11 -8 26
-17 35 -12 12 -17 13 -25 2z"/>
<path d="M4430 14296 c0 -2 8 -10 18 -17 15 -13 16 -12 3 4 -13 16 -21 21 -21
13z"/>
<path d="M7080 14263 c0 -6 8 -17 18 -24 16 -13 16 -13 2 6 -8 11 -16 22 -17
24 -2 2 -3 0 -3 -6z"/>
<path d="M7120 14236 c0 -2 7 -9 15 -16 13 -11 14 -10 9 4 -5 14 -24 23 -24
12z"/>
<path d="M7196 14115 c-9 -26 -7 -32 5 -12 6 10 9 21 6 23 -2 3 -7 -2 -11 -11z"/>
<path d="M4630 14004 c0 -8 5 -12 10 -9 6 4 8 11 5 16 -9 14 -15 11 -15 -7z"/>
<path d="M14910 14763 c0 -4 11 -13 25 -20 14 -6 23 -7 19 -2 -8 13 -44 31
-44 22z"/>
<path d="M15055 14640 c3 -5 8 -10 11 -10 2 0 4 5 4 10 0 6 -5 10 -11 10 -5 0
-7 -4 -4 -10z"/>
<path d="M18347 14176 c10 -13 19 -23 21 -21 5 5 -22 45 -31 45 -4 0 0 -11 10
-24z"/>
<path d="M16115 14109 c-4 -6 -5 -12 -2 -15 2 -3 7 2 10 11 7 17 1 20 -8 4z"/>
<path d="M16074 14048 c1 -34 2 -34 17 -7 6 13 7 19 1 15 -6 -3 -12 0 -15 6
-2 7 -4 1 -3 -14z"/>
<path d="M15991 13863 c-9 -19 -9 -29 -2 -31 6 -2 8 -9 4 -15 -3 -7 -3 -9 2
-5 6 6 16 78 10 78 -1 0 -7 -12 -14 -27z"/>
<path d="M8530 14750 c0 -5 5 -10 11 -10 5 0 7 5 4 10 -3 6 -8 10 -11 10 -2 0
-4 -4 -4 -10z"/>
<path d="M8565 14750 c-3 -5 1 -10 10 -10 9 0 13 5 10 10 -3 6 -8 10 -10 10
-2 0 -7 -4 -10 -10z"/>
<path d="M8498 14743 c7 -3 16 -2 19 1 4 3 -2 6 -13 5 -11 0 -14 -3 -6 -6z"/>
<path d="M8175 14680 c-3 -6 1 -7 9 -4 18 7 21 14 7 14 -6 0 -13 -4 -16 -10z"/>
<path d="M8135 14670 c4 -6 11 -8 16 -5 14 9 11 15 -7 15 -8 0 -12 -5 -9 -10z"/>
<path d="M9198 14673 c6 -2 18 -2 25 0 6 3 1 5 -13 5 -14 0 -19 -2 -12 -5z"/>
<path d="M9247 14659 c7 -7 15 -10 18 -7 3 3 -2 9 -12 12 -14 6 -15 5 -6 -5z"/>
<path d="M8083 14645 c0 -7 6 -11 14 -8 7 3 13 6 13 8 0 2 -6 5 -13 8 -8 3
-14 -1 -14 -8z"/>
<path d="M8034 14614 c-18 -14 -18 -14 6 -3 31 14 36 19 24 19 -6 0 -19 -7
-30 -16z"/>
<path d="M9320 14610 c0 -6 7 -10 15 -10 8 0 15 2 15 4 0 2 -7 6 -15 10 -8 3
-15 1 -15 -4z"/>
<path d="M9381 14591 c-11 -7 -10 -11 7 -20 26 -14 43 -14 19 0 -9 6 -15 14
-12 20 8 11 4 11 -14 0z"/>
<path d="M9450 14566 c0 -2 7 -9 15 -16 9 -7 15 -8 15 -2 0 5 -7 12 -15 16 -8
3 -15 4 -15 2z"/>
<path d="M9673 14378 c-2 -18 0 -20 7 -8 12 18 13 30 2 30 -4 0 -9 -10 -9 -22z"/>
<path d="M7657 14353 c-11 -12 -17 -13 -17 -5 0 7 -5 10 -11 6 -8 -4 -8 -9 0
-17 8 -8 17 -5 33 11 12 12 20 22 17 22 -2 0 -12 -8 -22 -17z"/>
<path d="M7576 14292 c-16 -20 -21 -29 -10 -20 18 16 23 18 43 18 5 0 12 7 15
16 5 14 4 15 -9 4 -13 -11 -14 -10 -9 4 10 25 2 19 -30 -22z"/>
<path d="M7480 14179 c0 -5 5 -7 10 -4 6 3 10 8 10 11 0 2 -4 4 -10 4 -5 0
-10 -5 -10 -11z"/>
<path d="M7463 14148 c-18 -23 -25 -43 -8 -23 9 11 21 19 26 17 6 -1 8 2 4 8
-8 13 -10 13 -22 -2z"/>
<path d="M7306 13833 c-6 -14 -5 -15 5 -6 7 7 10 15 7 18 -3 3 -9 -2 -12 -12z"/>
<path d="M11630 13320 c0 -5 5 -10 11 -10 5 0 7 5 4 10 -3 6 -8 10 -11 10 -2
0 -4 -4 -4 -10z"/>
<path d="M11640 13289 c0 -5 5 -7 10 -4 6 3 10 8 10 11 0 2 -4 4 -10 4 -5 0
-10 -5 -10 -11z"/>
<path d="M11630 13260 c0 -5 5 -10 10 -10 6 0 10 5 10 10 0 6 -4 10 -10 10 -5
0 -10 -4 -10 -10z"/>
<path d="M8620 13824 c-146 -22 -230 -61 -320 -153 -160 -161 -235 -428 -247
-871 -19 -713 118 -1109 425 -1232 49 -19 75 -22 192 -23 123 0 140 2 197 26
143 60 220 138 294 294 87 185 119 376 126 744 7 359 -14 564 -78 761 -69 211
-159 330 -303 400 -96 48 -198 66 -286 54z m317 -726 c-3 -8 -6 -5 -6 6 -1 11
2 17 5 13 3 -3 4 -12 1 -19z m-347 -1194 c19 -13 29 -24 23 -24 -22 0 -112 83
-113 104 0 6 12 -5 28 -23 15 -19 43 -44 62 -57z m67 -50 c-3 -3 -12 -4 -19
-1 -8 3 -5 6 6 6 11 1 17 -2 13 -5z"/>
<path d="M5580 13310 l0 -481 278 3 277 3 67 33 c106 52 189 160 217 283 14
59 14 241 0 315 -24 132 -103 240 -212 290 l-62 29 -282 3 -283 4 0 -482z"/>
<path d="M13680 13786 c0 -3 0 -231 0 -507 l0 -501 257 0 c242 0 262 1 316 22
178 67 260 218 261 480 2 232 -77 395 -229 473 l-60 31 -272 4 c-150 2 -273 1
-273 -2z"/>
<path d="M18820 13018 c0 -16 5 -28 10 -28 13 0 13 20 0 40 -8 12 -10 9 -10
-12z"/>
<path d="M18830 12970 c0 -5 5 -10 10 -10 6 0 10 5 10 10 0 6 -4 10 -10 10 -5
0 -10 -4 -10 -10z"/>
<path d="M15441 12954 c0 -11 3 -14 6 -6 3 7 2 16 -1 19 -3 4 -6 -2 -5 -13z"/>
<path d="M15437 12923 c-11 -11 -8 -20 7 -20 8 0 12 6 9 14 -6 15 -7 15 -16 6z"/>
<path d="M15745 11580 c-3 -5 -1 -10 4 -10 6 0 11 5 11 10 0 6 -2 10 -4 10 -3
0 -8 -4 -11 -10z"/>
<path d="M2425 11370 c3 -5 8 -10 11 -10 2 0 4 5 4 10 0 6 -5 10 -11 10 -5 0
-7 -4 -4 -10z"/>
<path d="M2705 10480 c3 -5 8 -10 11 -10 2 0 4 5 4 10 0 6 -5 10 -11 10 -5 0
-7 -4 -4 -10z"/>
<path d="M15860 11125 c0 -5 5 -17 10 -25 5 -8 10 -10 10 -5 0 6 -5 17 -10 25
-5 8 -10 11 -10 5z"/>
<path d="M16675 10450 c11 -5 27 -9 35 -9 13 -1 13 0 0 9 -8 5 -24 9 -35 9
l-20 0 20 -9z"/>
<path d="M16745 10430 c27 -12 43 -12 25 0 -8 5 -22 9 -30 9 -10 0 -8 -3 5 -9z"/>
<path d="M13992 10835 c0 -16 2 -22 5 -12 2 9 2 23 0 30 -3 6 -5 -1 -5 -18z"/>
<path d="M13992 10770 c0 -19 2 -27 5 -17 2 9 2 25 0 35 -3 9 -5 1 -5 -18z"/>
<path d="M18359 10793 c-30 -31 -45 -51 -34 -43 28 20 97 91 93 96 -2 2 -29
-22 -59 -53z"/>
<path d="M17860 10472 c0 -6 -19 -15 -42 -21 l-43 -11 39 5 c40 4 65 19 53 32
-4 3 -7 1 -7 -5z"/>
<path d="M12270 10569 c0 -8 47 -5 55 3 3 3 -8 5 -25 5 -16 0 -30 -4 -30 -8z"/>
<path d="M10765 10489 c17 -7 36 -16 43 -22 8 -7 12 -5 12 5 0 8 -6 15 -12 15
-7 0 -26 3 -43 7 l-30 6 30 -11z"/>
<path d="M10848 10473 c7 -3 10 -9 7 -14 -3 -5 1 -6 9 -3 9 3 16 1 16 -5 0 -7
9 -9 24 -5 13 3 27 1 30 -5 4 -6 12 -11 19 -11 6 0 1 7 -11 16 -13 9 -29 13
-37 10 -7 -2 -15 -1 -17 4 -2 5 -14 10 -28 13 -14 2 -19 2 -12 0z"/>
<path d="M6670 10438 c0 -5 17 -8 37 -8 20 0 33 3 30 7 -10 9 -67 10 -67 1z"/>
<path d="M6770 10440 c-23 -7 -23 -8 -3 -9 12 -1 25 4 28 9 3 6 5 10 3 9 -2
-1 -14 -5 -28 -9z"/>
<path d="M6840 10440 c0 -5 5 -10 11 -10 5 0 7 5 4 10 -3 6 -8 10 -11 10 -2 0
-4 -4 -4 -10z"/>
<path d="M15495 10370 c4 -6 11 -8 16 -5 14 9 11 15 -7 15 -8 0 -12 -5 -9 -10z"/>
<path d="M15283 10084 c-1 -39 1 -44 20 -43 17 1 18 2 5 6 -24 6 -23 20 3 28
14 5 18 10 11 17 -6 6 -8 16 -6 22 2 6 -3 12 -13 13 -15 1 -18 -7 -20 -43z"/>
<path d="M15335 10119 c-9 -14 -2 -20 14 -10 8 6 9 11 3 15 -6 3 -14 1 -17 -5z"/>
<path d="M15333 10055 c0 -8 4 -12 9 -9 4 3 8 9 8 15 0 5 -4 9 -8 9 -5 0 -9
-7 -9 -15z"/>
<path d="M2790 8621 c0 -5 5 -13 10 -16 6 -3 10 -2 10 4 0 5 -4 13 -10 16 -5
3 -10 2 -10 -4z"/>
<path d="M2840 8564 c30 -38 36 -42 51 -33 11 7 11 9 -3 9 -10 0 -17 5 -15 12
1 7 -2 12 -8 13 -5 0 -17 4 -25 10 -13 8 -13 7 0 -11z"/>
<path d="M2100 8160 c0 -5 5 -10 11 -10 5 0 7 5 4 10 -3 6 -8 10 -11 10 -2 0
-4 -4 -4 -10z"/>
<path d="M2570 8190 c0 -5 5 -10 10 -10 6 0 10 5 10 10 0 6 -4 10 -10 10 -5 0
-10 -4 -10 -10z"/>
<path d="M2910 8081 c0 -6 5 -11 10 -11 6 0 10 -7 10 -16 0 -8 -4 -12 -10 -9
-5 3 -10 1 -10 -4 0 -6 7 -11 16 -11 11 0 14 8 12 27 -3 25 -28 47 -28 24z"/>
<path d="M2976 7982 c18 -15 37 -36 43 -47 8 -16 10 -17 11 -4 0 16 -63 79
-78 79 -4 0 7 -13 24 -28z"/>
<path d="M2836 7951 c-23 -43 -20 -52 5 -12 11 18 18 35 15 38 -2 3 -12 -9
-20 -26z"/>
<path d="M3031 7893 c-1 -6 -4 -20 -7 -30 -5 -17 -5 -17 6 0 6 10 9 23 6 30
-3 9 -5 9 -5 0z"/>
<path d="M3000 7829 c0 -5 5 -7 10 -4 6 3 10 8 10 11 0 2 -4 4 -10 4 -5 0 -10
-5 -10 -11z"/>
<path d="M3090 7729 c-12 -8 -11 -9 5 -7 11 2 19 -2 18 -8 -1 -6 9 -22 23 -35
24 -23 24 -23 21 -1 -3 20 -34 62 -46 62 -3 0 -13 -5 -21 -11z m55 -29 c3 -6
-1 -7 -9 -4 -18 7 -21 14 -7 14 6 0 13 -4 16 -10z"/>
<path d="M9540 8067 c0 -9 4 -18 9 -21 5 -4 8 1 7 9 -3 21 -16 31 -16 12z"/>
<path d="M9600 8070 c-9 -6 -10 -10 -3 -10 6 0 15 5 18 10 8 12 4 12 -15 0z"/>
<path d="M4390 7611 c0 -6 4 -13 10 -16 6 -3 7 1 4 9 -7 18 -14 21 -14 7z"/>
<path d="M2310 7016 c0 -4 7 -14 15 -22 8 -9 15 -11 15 -6 0 5 -7 15 -15 22
-8 7 -15 9 -15 6z"/>
<path d="M4770 7068 c0 -9 5 -20 10 -23 13 -8 13 5 0 25 -8 13 -10 13 -10 -2z"/>
<path d="M4820 6991 c0 -6 4 -13 10 -16 6 -3 7 1 4 9 -7 18 -14 21 -14 7z"/>
<path d="M4570 6605 c0 -17 -12 -19 -26 -5 -7 7 -11 6 -11 -5 0 -9 9 -15 24
-15 16 0 23 6 23 20 0 11 -2 20 -5 20 -3 0 -5 -7 -5 -15z"/>
<path d="M19012 6418 c-7 -7 -12 -16 -12 -21 0 -5 7 -1 16 8 9 9 14 18 12 20
-2 3 -10 -1 -16 -7z"/>
<path d="M555 1451 c-3 -2 -5 -37 -5 -78 l0 -73 45 0 46 0 -5 68 c-3 37 -5 70
-5 73 -1 8 -70 17 -76 10z"/>
<path d="M19135 11630 c3 -5 8 -10 11 -10 2 0 4 5 4 10 0 6 -5 10 -11 10 -5 0
-7 -4 -4 -10z"/>
</g>
</svg>
